<?xml version="1.0" encoding="UTF-8"?>
<svg xmlns="http://www.w3.org/2000/svg" xmlns:xlink="http://www.w3.org/1999/xlink" width="2400" height="2400" viewBox="0 0 2400 2400">
<rect x="-240" y="-240" width="2880" height="2880" fill="rgb(0%, 0%, 0%)" fill-opacity="1"/>
<path fill-rule="nonzero" fill="rgb(100%, 100%, 100%)" fill-opacity="1" d="M 1120.429688 1043.679688 L 1146.980469 944.589844 C 1080.078125 1005.691406 1032.578125 1059.988281 1000.820312 1107.628906 L 1201.519531 1107.628906 L 1077.839844 1202.640625 L 954.773438 1202.640625 C 948.8125 1225.121094 948.171875 1244.210938 951.824219 1260.019531 C 956.488281 1280.351562 968.910156 1296.210938 986.117188 1307.519531 C 1002.050781 1317.988281 1021.960938 1325 1044.101562 1328.558594 L 1164.351562 1246.351562 L 1116.238281 1425.925781 L 1079.800781 1425.929688 C 1025.660156 1425.933594 974.089844 1412.808594 934.164062 1386.570312 C 896.960938 1362.109375 869.933594 1327 859.421875 1281.171875 C 849.628906 1238.511719 854.726562 1187.738281 880.4375 1129.449219 C 921.789062 1035.699219 1019.808594 916.988281 1202.570312 774.410156 L 1314.128906 687.390625 L 1277.53125 823.960938 L 1248.148438 933.601562 Z M 1355.898438 1071.441406 L 1342.300781 1122.191406 L 1244.078125 1122.191406 L 1283.769531 974.078125 L 1320.199219 974.070312 C 1374.339844 974.070312 1425.910156 987.191406 1465.839844 1013.429688 C 1503.039062 1037.890625 1530.070312 1073 1540.578125 1118.828125 C 1550.371094 1161.488281 1545.269531 1212.261719 1519.558594 1270.558594 C 1513.660156 1283.929688 1506.601562 1297.820312 1498.308594 1312.210938 L 1291.378906 1312.210938 L 1253.011719 1455.40625 C 1271.148438 1438.847656 1287.859375 1422.78125 1303.21875 1407.210938 L 1430.921875 1407.210938 C 1376.710938 1472.273438 1300.570312 1545.132812 1197.429688 1625.585938 L 1085.878906 1712.609375 L 1122.46875 1576.039062 L 1218.621094 1217.199219 L 1438.878906 1217.199219 C 1450.5 1185.910156 1452.761719 1160.308594 1448.179688 1139.980469 C 1443.511719 1119.648438 1431.089844 1103.800781 1413.878906 1092.480469 C 1397.949219 1082.011719 1378.039062 1075 1355.898438 1071.441406 "/>
</svg>
