<svg xmlns="http://www.w3.org/2000/svg" xmlns:xlink="http://www.w3.org/1999/xlink" width="500" zoomAndPan="magnify" viewBox="0 0 375 112.499997" height="150" preserveAspectRatio="xMidYMid meet" version="1.2"><defs><clipPath id="ad2daab5be"><path d="M 0.828125 94 L 91.925781 94 L 91.925781 112.003906 L 0.828125 112.003906 Z M 0.828125 94 "/></clipPath></defs><g id="d7b857429c"><path style=" stroke:none;fill-rule:nonzero;fill:#3672c1;fill-opacity:1;" d="M 63.242188 44.007812 L 77.761719 54.257812 L 77.761719 55.777344 L 63.242188 45.527344 Z M 63.242188 47.5625 L 77.761719 57.8125 L 77.761719 59.332031 L 63.242188 49.082031 Z M 63.242188 51.117188 L 77.761719 61.367188 L 77.761719 62.886719 L 63.242188 52.636719 Z M 63.242188 54.667969 L 77.761719 64.921875 L 77.761719 66.441406 L 63.242188 56.1875 Z M 63.242188 58.222656 L 77.761719 68.472656 L 77.761719 69.992188 L 63.242188 59.742188 Z M 63.242188 61.777344 L 77.761719 72.027344 L 77.761719 73.550781 L 63.242188 63.296875 Z M 63.242188 65.332031 L 77.761719 75.582031 L 77.761719 77.101562 L 63.242188 66.851562 Z M 63.242188 68.886719 L 77.761719 79.136719 L 77.761719 80.65625 L 63.242188 70.40625 Z M 63.242188 72.4375 L 77.761719 82.691406 L 77.761719 84.210938 L 63.242188 73.960938 Z M 63.242188 75.992188 L 77.761719 86.242188 L 77.761719 87.765625 L 63.242188 77.515625 Z M 63.242188 79.546875 L 77.761719 89.796875 L 77.761719 91.316406 L 63.242188 81.066406 Z M 63.242188 83.101562 L 77.761719 93.351562 L 77.761719 94.871094 L 63.242188 84.621094 Z M 63.242188 86.65625 L 77.761719 96.90625 L 77.761719 98.425781 L 63.242188 88.175781 Z M 51.167969 47.785156 L 51.167969 93.46875 C 55.296875 93.703125 59.347656 94.238281 63.242188 95.0625 L 63.242188 93.761719 L 65.96875 95.691406 C 67.628906 96.105469 69.257812 96.574219 70.847656 97.097656 L 63.242188 91.730469 L 63.242188 90.210938 L 75.375 98.777344 C 76.828125 99.378906 78.230469 100.023438 79.570312 100.710938 L 79.570312 52.351562 L 63.242188 40.828125 L 60.105469 42.632812 L 60.105469 72.203125 L 58.929688 72.203125 L 58.929688 43.308594 L 57.167969 44.328125 L 57.167969 55.894531 L 56.363281 55.894531 L 56.363281 44.789062 L 53.558594 46.40625 L 53.558594 64.492188 L 52.996094 64.492188 L 52.996094 46.730469 L 51.167969 47.785156 "/><path style=" stroke:none;fill-rule:nonzero;fill:#2563eb;fill-opacity:1;" d="M 44.824219 3.683594 L 45.0625 3.894531 L 47.160156 5.75 L 48.34375 6.800781 L 48.34375 13.757812 L 47.160156 12.707031 L 45.0625 10.851562 L 44.824219 10.640625 Z M 44.824219 11.898438 L 45.0625 12.109375 L 47.160156 13.964844 L 48.34375 15.015625 L 48.34375 21.972656 L 47.160156 20.921875 L 45.0625 19.066406 L 44.824219 18.855469 Z M 44.824219 20.109375 L 45.0625 20.320312 L 47.160156 22.175781 L 48.34375 23.226562 L 48.34375 30.183594 L 47.160156 29.136719 L 45.0625 27.277344 L 44.824219 27.066406 Z M 44.824219 28.324219 L 45.0625 28.535156 L 47.160156 30.390625 L 48.34375 31.441406 L 48.34375 38.398438 L 47.160156 37.347656 L 45.0625 35.492188 L 44.824219 35.28125 Z M 44.824219 36.535156 L 45.0625 36.746094 L 47.160156 38.601562 L 48.34375 39.652344 L 48.34375 46.609375 L 47.160156 45.558594 L 45.0625 43.703125 L 44.824219 43.492188 Z M 44.824219 44.75 L 45.0625 44.960938 L 47.160156 46.816406 L 48.34375 47.867188 L 48.34375 54.824219 L 47.160156 53.773438 L 45.0625 51.917969 L 44.824219 51.707031 Z M 44.824219 52.964844 L 45.0625 53.171875 L 47.160156 55.027344 L 48.34375 56.078125 L 48.34375 63.039062 L 47.160156 61.984375 L 45.0625 60.128906 L 44.824219 59.917969 Z M 44.824219 61.175781 L 45.0625 61.386719 L 47.160156 63.242188 L 48.34375 64.292969 L 48.34375 71.25 L 47.160156 70.199219 L 45.0625 68.34375 L 44.824219 68.132812 Z M 44.824219 69.386719 L 45.0625 69.597656 L 47.160156 71.453125 L 48.34375 72.503906 L 48.34375 79.460938 L 47.160156 78.410156 L 45.0625 76.554688 L 44.824219 76.34375 Z M 44.824219 77.601562 L 45.0625 77.8125 L 47.160156 79.667969 L 48.34375 80.71875 L 48.34375 87.675781 L 47.160156 86.625 L 45.0625 84.769531 L 44.824219 84.558594 Z M 48.980469 7.363281 L 49.5625 7.875 L 51.964844 10.003906 L 52.5 10.476562 L 52.5 17.433594 L 51.964844 16.957031 L 49.5625 14.835938 L 48.980469 14.316406 Z M 48.980469 15.574219 L 49.5625 16.089844 L 51.964844 18.214844 L 52.5 18.6875 L 52.5 25.648438 L 51.964844 25.171875 L 49.5625 23.046875 L 48.980469 22.53125 Z M 48.980469 23.785156 L 49.5625 24.300781 L 51.964844 26.429688 L 52.5 26.902344 L 52.5 33.859375 L 51.964844 33.382812 L 49.5625 31.261719 L 48.980469 30.746094 Z M 48.980469 32 L 49.5625 32.515625 L 51.964844 34.640625 L 52.5 35.117188 L 52.5 42.074219 L 51.964844 41.597656 L 49.5625 39.476562 L 48.980469 38.960938 Z M 53.128906 11.035156 L 54.363281 12.128906 L 56.652344 14.152344 L 56.652344 21.109375 L 54.363281 19.085938 L 53.128906 17.992188 Z M 53.128906 19.25 L 54.363281 20.339844 L 56.652344 22.367188 L 56.652344 29.324219 L 54.363281 27.296875 L 53.128906 26.207031 Z M 53.128906 27.460938 L 54.363281 28.554688 L 56.652344 30.578125 L 56.652344 37.535156 L 54.363281 35.511719 L 53.128906 34.421875 Z M 57.285156 14.710938 L 60.808594 17.832031 L 60.808594 24.789062 L 57.285156 21.667969 Z M 57.285156 22.925781 L 60.808594 26.046875 L 60.808594 33 L 57.285156 29.882812 Z M 29.089844 10.175781 L 29.089844 25.878906 L 38.789062 29.824219 L 39.691406 30.191406 L 39.691406 93.59375 C 41.601562 93.441406 43.527344 93.355469 45.464844 93.335938 L 45.0625 92.980469 L 44.824219 92.773438 L 44.824219 85.8125 L 45.0625 86.023438 L 47.160156 87.878906 L 48.34375 88.929688 L 48.34375 93.355469 C 48.554688 93.363281 48.769531 93.367188 48.980469 93.375 L 48.980469 89.492188 L 49.5625 90.003906 L 49.71875 90.144531 L 49.71875 88.890625 L 49.5625 88.75 L 48.980469 88.234375 L 48.980469 81.277344 L 49.5625 81.792969 L 49.71875 81.933594 L 49.71875 80.675781 L 49.5625 80.539062 L 48.980469 80.023438 L 48.980469 73.0625 L 49.5625 73.578125 L 49.71875 73.71875 L 49.71875 72.464844 L 49.5625 72.324219 L 48.980469 71.808594 L 48.980469 64.851562 L 49.5625 65.367188 L 49.71875 65.507812 L 49.71875 64.25 L 49.5625 64.113281 L 48.980469 63.597656 L 48.980469 56.640625 L 49.5625 57.15625 L 49.71875 57.292969 L 49.71875 56.039062 L 49.5625 55.898438 L 48.980469 55.382812 L 48.980469 48.425781 L 49.5625 48.941406 L 49.71875 49.082031 L 49.71875 47.824219 L 49.5625 47.6875 L 48.980469 47.171875 L 48.980469 40.210938 L 49.5625 40.726562 L 51.964844 42.851562 L 52.5 43.328125 L 52.5 45.34375 L 53.128906 44.980469 L 53.128906 43.886719 L 53.878906 44.550781 L 54.445312 44.222656 L 54.738281 44.054688 L 54.363281 43.726562 L 53.128906 42.632812 L 53.128906 35.675781 L 54.363281 36.769531 L 56.652344 38.792969 L 56.652344 42.953125 L 57.285156 42.585938 L 57.285156 39.351562 L 59.496094 41.3125 L 60.359375 40.816406 L 57.285156 38.097656 L 57.285156 31.140625 L 60.808594 34.257812 L 60.808594 40.558594 L 61.921875 39.917969 L 61.921875 16.589844 L 60.878906 15.664062 L 56.617188 11.894531 L 54.21875 9.765625 L 51.816406 7.640625 L 49.410156 5.515625 L 47.011719 3.390625 L 44.914062 1.535156 L 43.179688 0 L 29.089844 10.175781 "/><path style=" stroke:none;fill-rule:nonzero;fill:#3672c1;fill-opacity:1;" d="M 13.101562 36.441406 L 25.292969 29.628906 L 25.292969 32.402344 L 26.652344 31.4375 L 37.480469 35.839844 L 37.480469 31.929688 L 25.582031 27.089844 L 13.101562 36.441406 "/><path style=" stroke:none;fill-rule:nonzero;fill:#3672c1;fill-opacity:1;" d="M 13.101562 42.953125 L 25.292969 36.140625 L 25.292969 38.914062 L 26.652344 37.949219 L 37.480469 42.351562 L 37.480469 38.441406 L 25.582031 33.601562 L 13.101562 42.953125 "/><path style=" stroke:none;fill-rule:nonzero;fill:#3672c1;fill-opacity:1;" d="M 13.101562 49.464844 L 25.292969 42.652344 L 25.292969 45.425781 L 26.652344 44.460938 L 37.480469 48.863281 L 37.480469 44.953125 L 25.582031 40.113281 L 13.101562 49.464844 "/><path style=" stroke:none;fill-rule:nonzero;fill:#3672c1;fill-opacity:1;" d="M 13.101562 55.976562 L 25.292969 49.164062 L 25.292969 51.9375 L 26.652344 50.972656 L 37.480469 55.375 L 37.480469 51.460938 L 25.582031 46.625 L 13.101562 55.976562 "/><path style=" stroke:none;fill-rule:nonzero;fill:#3672c1;fill-opacity:1;" d="M 13.101562 62.488281 L 25.292969 55.675781 L 25.292969 58.449219 L 26.652344 57.480469 L 37.480469 61.886719 L 37.480469 57.976562 L 25.582031 53.136719 L 13.101562 62.488281 "/><path style=" stroke:none;fill-rule:nonzero;fill:#3672c1;fill-opacity:1;" d="M 13.101562 69 L 25.292969 62.1875 L 25.292969 64.960938 L 26.652344 63.992188 L 37.480469 68.398438 L 37.480469 64.484375 L 25.582031 59.644531 L 13.101562 69 "/><path style=" stroke:none;fill-rule:nonzero;fill:#3672c1;fill-opacity:1;" d="M 13.101562 75.511719 L 25.292969 68.699219 L 25.292969 71.472656 L 26.652344 70.503906 L 37.480469 74.910156 L 37.480469 70.996094 L 25.582031 66.160156 L 13.101562 75.511719 "/><path style=" stroke:none;fill-rule:nonzero;fill:#3672c1;fill-opacity:1;" d="M 13.101562 82.023438 L 25.292969 75.210938 L 25.292969 77.980469 L 26.652344 77.015625 L 37.480469 81.417969 L 37.480469 77.507812 L 25.582031 72.667969 L 13.101562 82.023438 "/><path style=" stroke:none;fill-rule:nonzero;fill:#3672c1;fill-opacity:1;" d="M 13.101562 88.535156 L 25.292969 81.722656 L 25.292969 84.496094 L 26.652344 83.527344 L 37.480469 87.929688 L 37.480469 84.019531 L 25.582031 79.179688 L 13.101562 88.535156 "/><path style=" stroke:none;fill-rule:nonzero;fill:#3672c1;fill-opacity:1;" d="M 13.101562 95.046875 L 25.292969 88.234375 L 25.292969 91.003906 L 26.652344 90.039062 L 36.238281 93.9375 C 36.652344 93.886719 37.066406 93.839844 37.480469 93.796875 L 37.480469 90.53125 L 25.582031 85.691406 L 13.101562 95.046875 "/><path style=" stroke:none;fill-rule:nonzero;fill:#3672c1;fill-opacity:1;" d="M 16.175781 99.253906 C 16.996094 98.890625 17.835938 98.546875 18.691406 98.214844 C 19.082031 98.066406 19.472656 97.917969 19.871094 97.773438 L 25.292969 94.746094 L 25.292969 96.054688 C 27.335938 95.5 29.433594 95.027344 31.574219 94.640625 L 25.582031 92.203125 L 16.175781 99.253906 "/><g clip-rule="nonzero" clip-path="url(#ad2daab5be)"><path style=" stroke:none;fill-rule:nonzero;fill:#2563eb;fill-opacity:1;" d="M 46.332031 94.78125 C 66.292969 94.78125 83.550781 101.804688 91.796875 112.003906 C 79.777344 105.375 63.832031 101.332031 46.332031 101.332031 C 41.390625 101.332031 36.566406 101.65625 31.921875 102.269531 C 31.609375 102.3125 31.292969 102.351562 30.980469 102.398438 C 29.722656 102.574219 28.480469 102.773438 27.25 102.992188 C 26.890625 103.054688 26.535156 103.121094 26.179688 103.191406 C 16.675781 104.988281 8.070312 108.03125 0.871094 112.003906 C 9.121094 101.800781 26.378906 94.78125 46.332031 94.78125 "/></g><g style="fill:#3672c1;fill-opacity:1;"><g transform="translate(98.362636, 63.472189)"><path style="stroke:none" d="M 16.609375 0.375 C 13.910156 0.375 11.488281 -0.0625 9.34375 -0.9375 C 7.207031 -1.820312 5.5 -3.117188 4.21875 -4.828125 C 2.945312 -6.546875 2.273438 -8.613281 2.203125 -11.03125 L 11.765625 -11.03125 C 11.910156 -9.664062 12.382812 -8.625 13.1875 -7.90625 C 13.988281 -7.1875 15.039062 -6.828125 16.34375 -6.828125 C 17.675781 -6.828125 18.726562 -7.132812 19.5 -7.75 C 20.269531 -8.363281 20.65625 -9.210938 20.65625 -10.296875 C 20.65625 -11.210938 20.347656 -11.96875 19.734375 -12.5625 C 19.117188 -13.15625 18.363281 -13.644531 17.46875 -14.03125 C 16.570312 -14.414062 15.300781 -14.851562 13.65625 -15.34375 C 11.28125 -16.082031 9.335938 -16.816406 7.828125 -17.546875 C 6.316406 -18.285156 5.019531 -19.375 3.9375 -20.8125 C 2.851562 -22.25 2.3125 -24.125 2.3125 -26.4375 C 2.3125 -29.863281 3.554688 -32.546875 6.046875 -34.484375 C 8.535156 -36.429688 11.773438 -37.40625 15.765625 -37.40625 C 19.828125 -37.40625 23.101562 -36.429688 25.59375 -34.484375 C 28.082031 -32.546875 29.410156 -29.84375 29.578125 -26.375 L 19.859375 -26.375 C 19.785156 -27.570312 19.347656 -28.507812 18.546875 -29.1875 C 17.742188 -29.875 16.710938 -30.21875 15.453125 -30.21875 C 14.359375 -30.21875 13.476562 -29.925781 12.8125 -29.34375 C 12.15625 -28.769531 11.828125 -27.9375 11.828125 -26.84375 C 11.828125 -25.65625 12.382812 -24.726562 13.5 -24.0625 C 14.625 -23.394531 16.378906 -22.675781 18.765625 -21.90625 C 21.140625 -21.101562 23.070312 -20.332031 24.5625 -19.59375 C 26.050781 -18.863281 27.335938 -17.796875 28.421875 -16.390625 C 29.515625 -14.992188 30.0625 -13.191406 30.0625 -10.984375 C 30.0625 -8.878906 29.523438 -6.96875 28.453125 -5.25 C 27.378906 -3.539062 25.828125 -2.175781 23.796875 -1.15625 C 21.765625 -0.132812 19.367188 0.375 16.609375 0.375 Z M 16.609375 0.375 "/></g></g><g style="fill:#3672c1;fill-opacity:1;"><g transform="translate(130.679461, 63.472189)"><path style="stroke:none" d="M 16.609375 0.421875 C 13.734375 0.421875 11.144531 -0.191406 8.84375 -1.421875 C 6.550781 -2.648438 4.75 -4.398438 3.4375 -6.671875 C 2.125 -8.953125 1.46875 -11.613281 1.46875 -14.65625 C 1.46875 -17.664062 2.132812 -20.316406 3.46875 -22.609375 C 4.800781 -24.910156 6.625 -26.671875 8.9375 -27.890625 C 11.25 -29.117188 13.835938 -29.734375 16.703125 -29.734375 C 19.578125 -29.734375 22.171875 -29.117188 24.484375 -27.890625 C 26.796875 -26.671875 28.617188 -24.910156 29.953125 -22.609375 C 31.285156 -20.316406 31.953125 -17.664062 31.953125 -14.65625 C 31.953125 -11.644531 31.273438 -8.992188 29.921875 -6.703125 C 28.578125 -4.410156 26.738281 -2.648438 24.40625 -1.421875 C 22.070312 -0.191406 19.472656 0.421875 16.609375 0.421875 Z M 16.609375 -7.359375 C 18.316406 -7.359375 19.773438 -7.988281 20.984375 -9.25 C 22.203125 -10.507812 22.8125 -12.3125 22.8125 -14.65625 C 22.8125 -17.007812 22.222656 -18.816406 21.046875 -20.078125 C 19.867188 -21.335938 18.421875 -21.96875 16.703125 -21.96875 C 14.953125 -21.96875 13.5 -21.34375 12.34375 -20.09375 C 11.1875 -18.851562 10.609375 -17.039062 10.609375 -14.65625 C 10.609375 -12.3125 11.175781 -10.507812 12.3125 -9.25 C 13.457031 -7.988281 14.890625 -7.359375 16.609375 -7.359375 Z M 16.609375 -7.359375 "/></g></g><g style="fill:#3672c1;fill-opacity:1;"><g transform="translate(164.152333, 63.472189)"><path style="stroke:none" d="M 1.46875 -14.65625 C 1.46875 -17.707031 2.085938 -20.367188 3.328125 -22.640625 C 4.578125 -24.921875 6.3125 -26.671875 8.53125 -27.890625 C 10.757812 -29.117188 13.3125 -29.734375 16.1875 -29.734375 C 19.863281 -29.734375 22.9375 -28.769531 25.40625 -26.84375 C 27.875 -24.925781 29.492188 -22.210938 30.265625 -18.703125 L 20.703125 -18.703125 C 19.898438 -20.941406 18.34375 -22.0625 16.03125 -22.0625 C 14.382812 -22.0625 13.066406 -21.421875 12.078125 -20.140625 C 11.097656 -18.867188 10.609375 -17.039062 10.609375 -14.65625 C 10.609375 -12.28125 11.097656 -10.453125 12.078125 -9.171875 C 13.066406 -7.890625 14.382812 -7.25 16.03125 -7.25 C 18.34375 -7.25 19.898438 -8.367188 20.703125 -10.609375 L 30.265625 -10.609375 C 29.492188 -7.179688 27.863281 -4.484375 25.375 -2.515625 C 22.894531 -0.554688 19.832031 0.421875 16.1875 0.421875 C 13.3125 0.421875 10.757812 -0.191406 8.53125 -1.421875 C 6.3125 -2.648438 4.578125 -4.398438 3.328125 -6.671875 C 2.085938 -8.953125 1.46875 -11.613281 1.46875 -14.65625 Z M 1.46875 -14.65625 "/></g></g><g style="fill:#3672c1;fill-opacity:1;"><g transform="translate(195.94368, 63.472189)"><path style="stroke:none" d="M 7.78125 -32.375 C 6.195312 -32.375 4.90625 -32.835938 3.90625 -33.765625 C 2.914062 -34.691406 2.421875 -35.835938 2.421875 -37.203125 C 2.421875 -38.609375 2.914062 -39.773438 3.90625 -40.703125 C 4.90625 -41.628906 6.195312 -42.09375 7.78125 -42.09375 C 9.320312 -42.09375 10.585938 -41.628906 11.578125 -40.703125 C 12.578125 -39.773438 13.078125 -38.609375 13.078125 -37.203125 C 13.078125 -35.835938 12.578125 -34.691406 11.578125 -33.765625 C 10.585938 -32.835938 9.320312 -32.375 7.78125 -32.375 Z M 12.25 -29.328125 L 12.25 0 L 3.265625 0 L 3.265625 -29.328125 Z M 12.25 -29.328125 "/></g></g><g style="fill:#3672c1;fill-opacity:1;"><g transform="translate(211.445248, 63.472189)"><path style="stroke:none" d="M 30.890625 -15.140625 C 30.890625 -14.296875 30.835938 -13.414062 30.734375 -12.5 L 10.40625 -12.5 C 10.539062 -10.6875 11.125 -9.296875 12.15625 -8.328125 C 13.195312 -7.367188 14.46875 -6.890625 15.96875 -6.890625 C 18.21875 -6.890625 19.78125 -7.832031 20.65625 -9.71875 L 30.21875 -9.71875 C 29.726562 -7.789062 28.84375 -6.054688 27.5625 -4.515625 C 26.28125 -2.972656 24.675781 -1.765625 22.75 -0.890625 C 20.820312 -0.015625 18.671875 0.421875 16.296875 0.421875 C 13.421875 0.421875 10.859375 -0.191406 8.609375 -1.421875 C 6.367188 -2.648438 4.617188 -4.398438 3.359375 -6.671875 C 2.097656 -8.953125 1.46875 -11.613281 1.46875 -14.65625 C 1.46875 -17.707031 2.085938 -20.367188 3.328125 -22.640625 C 4.578125 -24.921875 6.320312 -26.671875 8.5625 -27.890625 C 10.800781 -29.117188 13.378906 -29.734375 16.296875 -29.734375 C 19.128906 -29.734375 21.648438 -29.140625 23.859375 -27.953125 C 26.066406 -26.765625 27.789062 -25.066406 29.03125 -22.859375 C 30.269531 -20.648438 30.890625 -18.078125 30.890625 -15.140625 Z M 21.703125 -17.5 C 21.703125 -19.039062 21.175781 -20.265625 20.125 -21.171875 C 19.070312 -22.085938 17.757812 -22.546875 16.1875 -22.546875 C 14.675781 -22.546875 13.40625 -22.109375 12.375 -21.234375 C 11.34375 -20.359375 10.703125 -19.113281 10.453125 -17.5 Z M 21.703125 -17.5 "/></g></g><g style="fill:#3672c1;fill-opacity:1;"><g transform="translate(243.814619, 63.472189)"><path style="stroke:none" d="M 19.59375 -7.625 L 19.59375 0 L 15.03125 0 C 11.769531 0 9.226562 -0.796875 7.40625 -2.390625 C 5.582031 -3.984375 4.671875 -6.582031 4.671875 -10.1875 L 4.671875 -21.859375 L 1.109375 -21.859375 L 1.109375 -29.328125 L 4.671875 -29.328125 L 4.671875 -36.46875 L 13.65625 -36.46875 L 13.65625 -29.328125 L 19.546875 -29.328125 L 19.546875 -21.859375 L 13.65625 -21.859375 L 13.65625 -10.09375 C 13.65625 -9.21875 13.863281 -8.585938 14.28125 -8.203125 C 14.707031 -7.816406 15.410156 -7.625 16.390625 -7.625 Z M 19.59375 -7.625 "/></g></g><g style="fill:#3672c1;fill-opacity:1;"><g transform="translate(265.148974, 63.472189)"><path style="stroke:none" d="M 33.203125 -29.328125 L 14.8125 13.921875 L 5.15625 13.921875 L 11.875 -1 L -0.046875 -29.328125 L 9.984375 -29.328125 L 16.765625 -10.984375 L 23.484375 -29.328125 Z M 33.203125 -29.328125 "/></g></g><g style="fill:#3672c1;fill-opacity:1;"><g transform="translate(298.359102, 63.472189)"><path style="stroke:none" d=""/></g></g><g style="fill:#3672c1;fill-opacity:1;"><g transform="translate(309.49921, 63.472189)"><path style="stroke:none" d="M 12.25 -29.6875 L 12.25 -22.234375 L 24.28125 -22.234375 L 24.28125 -15.296875 L 12.25 -15.296875 L 12.25 -7.203125 L 25.859375 -7.203125 L 25.859375 0 L 3.265625 0 L 3.265625 -36.890625 L 25.859375 -36.890625 L 25.859375 -29.6875 Z M 12.25 -29.6875 "/></g></g><g style="fill:#3672c1;fill-opacity:1;"><g transform="translate(337.927494, 63.472189)"><path style="stroke:none" d="M 12.828125 -7.359375 L 28.6875 -7.359375 L 28.6875 0 L 2.625 0 L 2.625 -6.828125 L 18.390625 -29.53125 L 2.625 -29.53125 L 2.625 -36.890625 L 28.6875 -36.890625 L 28.6875 -30.0625 Z M 12.828125 -7.359375 "/></g></g><g style="fill:#a6a6a6;fill-opacity:1;"><g transform="translate(111.63266, 95.789551)"><path style="stroke:none" d="M 5.609375 0.125 C 4.742188 0.125 3.96875 -0.0234375 3.28125 -0.328125 C 2.59375 -0.640625 2.054688 -1.066406 1.671875 -1.609375 C 1.285156 -2.148438 1.085938 -2.78125 1.078125 -3.5 L 2.890625 -3.5 C 2.953125 -2.882812 3.207031 -2.363281 3.65625 -1.9375 C 4.101562 -1.519531 4.753906 -1.3125 5.609375 -1.3125 C 6.421875 -1.3125 7.0625 -1.515625 7.53125 -1.921875 C 8 -2.335938 8.234375 -2.863281 8.234375 -3.5 C 8.234375 -4 8.09375 -4.40625 7.8125 -4.71875 C 7.539062 -5.03125 7.195312 -5.269531 6.78125 -5.4375 C 6.375 -5.601562 5.816406 -5.78125 5.109375 -5.96875 C 4.242188 -6.1875 3.550781 -6.410156 3.03125 -6.640625 C 2.507812 -6.867188 2.0625 -7.222656 1.6875 -7.703125 C 1.320312 -8.179688 1.140625 -8.832031 1.140625 -9.65625 C 1.140625 -10.363281 1.320312 -10.992188 1.6875 -11.546875 C 2.050781 -12.097656 2.5625 -12.523438 3.21875 -12.828125 C 3.882812 -13.128906 4.644531 -13.28125 5.5 -13.28125 C 6.726562 -13.28125 7.734375 -12.972656 8.515625 -12.359375 C 9.296875 -11.742188 9.738281 -10.929688 9.84375 -9.921875 L 7.953125 -9.921875 C 7.890625 -10.421875 7.625 -10.859375 7.15625 -11.234375 C 6.695312 -11.617188 6.085938 -11.8125 5.328125 -11.8125 C 4.609375 -11.8125 4.019531 -11.625 3.5625 -11.25 C 3.113281 -10.882812 2.890625 -10.367188 2.890625 -9.703125 C 2.890625 -9.234375 3.023438 -8.847656 3.296875 -8.546875 C 3.566406 -8.242188 3.898438 -8.015625 4.296875 -7.859375 C 4.691406 -7.703125 5.25 -7.519531 5.96875 -7.3125 C 6.832031 -7.070312 7.523438 -6.835938 8.046875 -6.609375 C 8.578125 -6.378906 9.03125 -6.019531 9.40625 -5.53125 C 9.78125 -5.050781 9.96875 -4.398438 9.96875 -3.578125 C 9.96875 -2.929688 9.796875 -2.328125 9.453125 -1.765625 C 9.117188 -1.203125 8.617188 -0.742188 7.953125 -0.390625 C 7.285156 -0.046875 6.503906 0.125 5.609375 0.125 Z M 5.609375 0.125 "/></g></g><g style="fill:#a6a6a6;fill-opacity:1;"><g transform="translate(122.66997, 95.789551)"><path style="stroke:none" d="M 13.84375 -10.5 C 14.644531 -10.5 15.359375 -10.332031 15.984375 -10 C 16.617188 -9.664062 17.113281 -9.164062 17.46875 -8.5 C 17.832031 -7.832031 18.015625 -7.023438 18.015625 -6.078125 L 18.015625 0 L 16.328125 0 L 16.328125 -5.828125 C 16.328125 -6.859375 16.070312 -7.644531 15.5625 -8.1875 C 15.0625 -8.738281 14.375 -9.015625 13.5 -9.015625 C 12.613281 -9.015625 11.90625 -8.726562 11.375 -8.15625 C 10.851562 -7.582031 10.59375 -6.757812 10.59375 -5.6875 L 10.59375 0 L 8.890625 0 L 8.890625 -5.828125 C 8.890625 -6.859375 8.632812 -7.644531 8.125 -8.1875 C 7.625 -8.738281 6.941406 -9.015625 6.078125 -9.015625 C 5.179688 -9.015625 4.46875 -8.726562 3.9375 -8.15625 C 3.414062 -7.582031 3.15625 -6.757812 3.15625 -5.6875 L 3.15625 0 L 1.453125 0 L 1.453125 -10.3125 L 3.15625 -10.3125 L 3.15625 -8.828125 C 3.5 -9.359375 3.953125 -9.769531 4.515625 -10.0625 C 5.085938 -10.351562 5.722656 -10.5 6.421875 -10.5 C 7.285156 -10.5 8.046875 -10.300781 8.703125 -9.90625 C 9.367188 -9.519531 9.867188 -8.953125 10.203125 -8.203125 C 10.484375 -8.929688 10.957031 -9.492188 11.625 -9.890625 C 12.289062 -10.296875 13.03125 -10.5 13.84375 -10.5 Z M 13.84375 -10.5 "/></g></g><g style="fill:#a6a6a6;fill-opacity:1;"><g transform="translate(142.036978, 95.789551)"><path style="stroke:none" d="M 0.8125 -5.1875 C 0.8125 -6.238281 1.023438 -7.160156 1.453125 -7.953125 C 1.878906 -8.753906 2.460938 -9.375 3.203125 -9.8125 C 3.953125 -10.257812 4.785156 -10.484375 5.703125 -10.484375 C 6.597656 -10.484375 7.378906 -10.285156 8.046875 -9.890625 C 8.710938 -9.503906 9.207031 -9.015625 9.53125 -8.421875 L 9.53125 -10.3125 L 11.265625 -10.3125 L 11.265625 0 L 9.53125 0 L 9.53125 -1.921875 C 9.195312 -1.316406 8.691406 -0.816406 8.015625 -0.421875 C 7.347656 -0.0234375 6.570312 0.171875 5.6875 0.171875 C 4.769531 0.171875 3.941406 -0.0507812 3.203125 -0.5 C 2.460938 -0.957031 1.878906 -1.59375 1.453125 -2.40625 C 1.023438 -3.21875 0.8125 -4.144531 0.8125 -5.1875 Z M 9.53125 -5.171875 C 9.53125 -5.953125 9.375 -6.628906 9.0625 -7.203125 C 8.75 -7.785156 8.328125 -8.226562 7.796875 -8.53125 C 7.265625 -8.84375 6.675781 -9 6.03125 -9 C 5.394531 -9 4.8125 -8.847656 4.28125 -8.546875 C 3.757812 -8.242188 3.34375 -7.800781 3.03125 -7.21875 C 2.71875 -6.644531 2.5625 -5.96875 2.5625 -5.1875 C 2.5625 -4.394531 2.71875 -3.707031 3.03125 -3.125 C 3.34375 -2.539062 3.757812 -2.09375 4.28125 -1.78125 C 4.8125 -1.476562 5.394531 -1.328125 6.03125 -1.328125 C 6.675781 -1.328125 7.265625 -1.476562 7.796875 -1.78125 C 8.328125 -2.09375 8.75 -2.539062 9.0625 -3.125 C 9.375 -3.707031 9.53125 -4.390625 9.53125 -5.171875 Z M 9.53125 -5.171875 "/></g></g><g style="fill:#a6a6a6;fill-opacity:1;"><g transform="translate(154.747757, 95.789551)"><path style="stroke:none" d="M 3.15625 -8.640625 C 3.457031 -9.222656 3.882812 -9.675781 4.4375 -10 C 5 -10.332031 5.679688 -10.5 6.484375 -10.5 L 6.484375 -8.734375 L 6.03125 -8.734375 C 4.113281 -8.734375 3.15625 -7.691406 3.15625 -5.609375 L 3.15625 0 L 1.453125 0 L 1.453125 -10.3125 L 3.15625 -10.3125 Z M 3.15625 -8.640625 "/></g></g><g style="fill:#a6a6a6;fill-opacity:1;"><g transform="translate(161.761249, 95.789551)"><path style="stroke:none" d="M 3.53125 -8.890625 L 3.53125 -2.828125 C 3.53125 -2.316406 3.632812 -1.957031 3.84375 -1.75 C 4.0625 -1.550781 4.4375 -1.453125 4.96875 -1.453125 L 6.234375 -1.453125 L 6.234375 0 L 4.6875 0 C 3.726562 0 3.007812 -0.21875 2.53125 -0.65625 C 2.0625 -1.09375 1.828125 -1.816406 1.828125 -2.828125 L 1.828125 -8.890625 L 0.484375 -8.890625 L 0.484375 -10.3125 L 1.828125 -10.3125 L 1.828125 -12.90625 L 3.53125 -12.90625 L 3.53125 -10.3125 L 6.234375 -10.3125 L 6.234375 -8.890625 Z M 3.53125 -8.890625 "/></g></g><g style="fill:#a6a6a6;fill-opacity:1;"><g transform="translate(168.605514, 95.789551)"><path style="stroke:none" d="M 10.859375 -5.546875 C 10.859375 -5.222656 10.835938 -4.878906 10.796875 -4.515625 L 2.5625 -4.515625 C 2.625 -3.492188 2.96875 -2.695312 3.59375 -2.125 C 4.226562 -1.5625 5 -1.28125 5.90625 -1.28125 C 6.644531 -1.28125 7.257812 -1.453125 7.75 -1.796875 C 8.25 -2.140625 8.597656 -2.597656 8.796875 -3.171875 L 10.640625 -3.171875 C 10.367188 -2.179688 9.816406 -1.375 8.984375 -0.75 C 8.160156 -0.132812 7.132812 0.171875 5.90625 0.171875 C 4.925781 0.171875 4.050781 -0.046875 3.28125 -0.484375 C 2.507812 -0.921875 1.90625 -1.546875 1.46875 -2.359375 C 1.03125 -3.171875 0.8125 -4.109375 0.8125 -5.171875 C 0.8125 -6.234375 1.023438 -7.164062 1.453125 -7.96875 C 1.878906 -8.78125 2.476562 -9.398438 3.25 -9.828125 C 4.019531 -10.265625 4.90625 -10.484375 5.90625 -10.484375 C 6.882812 -10.484375 7.75 -10.269531 8.5 -9.84375 C 9.25 -9.414062 9.828125 -8.828125 10.234375 -8.078125 C 10.648438 -7.328125 10.859375 -6.484375 10.859375 -5.546875 Z M 9.09375 -5.90625 C 9.09375 -6.5625 8.945312 -7.125 8.65625 -7.59375 C 8.363281 -8.0625 7.96875 -8.414062 7.46875 -8.65625 C 6.976562 -8.90625 6.429688 -9.03125 5.828125 -9.03125 C 4.960938 -9.03125 4.222656 -8.753906 3.609375 -8.203125 C 3.003906 -7.648438 2.660156 -6.882812 2.578125 -5.90625 Z M 9.09375 -5.90625 "/></g></g><g style="fill:#a6a6a6;fill-opacity:1;"><g transform="translate(180.263326, 95.789551)"><path style="stroke:none" d="M 3.15625 -8.640625 C 3.457031 -9.222656 3.882812 -9.675781 4.4375 -10 C 5 -10.332031 5.679688 -10.5 6.484375 -10.5 L 6.484375 -8.734375 L 6.03125 -8.734375 C 4.113281 -8.734375 3.15625 -7.691406 3.15625 -5.609375 L 3.15625 0 L 1.453125 0 L 1.453125 -10.3125 L 3.15625 -10.3125 Z M 3.15625 -8.640625 "/></g></g><g style="fill:#a6a6a6;fill-opacity:1;"><g transform="translate(187.276818, 95.789551)"><path style="stroke:none" d=""/></g></g><g style="fill:#a6a6a6;fill-opacity:1;"><g transform="translate(192.297194, 95.789551)"><path style="stroke:none" d="M 3.15625 -1.390625 L 7.75 -1.390625 L 7.75 0 L 1.453125 0 L 1.453125 -13.109375 L 3.15625 -13.109375 Z M 3.15625 -1.390625 "/></g></g><g style="fill:#a6a6a6;fill-opacity:1;"><g transform="translate(200.420063, 95.789551)"><path style="stroke:none" d="M 2.328125 -11.984375 C 2.003906 -11.984375 1.726562 -12.09375 1.5 -12.3125 C 1.28125 -12.539062 1.171875 -12.820312 1.171875 -13.15625 C 1.171875 -13.476562 1.28125 -13.75 1.5 -13.96875 C 1.726562 -14.195312 2.003906 -14.3125 2.328125 -14.3125 C 2.640625 -14.3125 2.90625 -14.195312 3.125 -13.96875 C 3.351562 -13.75 3.46875 -13.476562 3.46875 -13.15625 C 3.46875 -12.820312 3.351562 -12.539062 3.125 -12.3125 C 2.90625 -12.09375 2.640625 -11.984375 2.328125 -11.984375 Z M 3.15625 -10.3125 L 3.15625 0 L 1.453125 0 L 1.453125 -10.3125 Z M 3.15625 -10.3125 "/></g></g><g style="fill:#a6a6a6;fill-opacity:1;"><g transform="translate(205.045575, 95.789551)"><path style="stroke:none" d="M 5.28125 -1.578125 L 8.484375 -10.3125 L 10.3125 -10.3125 L 6.265625 0 L 4.265625 0 L 0.21875 -10.3125 L 2.0625 -10.3125 Z M 5.28125 -1.578125 "/></g></g><g style="fill:#a6a6a6;fill-opacity:1;"><g transform="translate(215.59401, 95.789551)"><path style="stroke:none" d="M 2.328125 -11.984375 C 2.003906 -11.984375 1.726562 -12.09375 1.5 -12.3125 C 1.28125 -12.539062 1.171875 -12.820312 1.171875 -13.15625 C 1.171875 -13.476562 1.28125 -13.75 1.5 -13.96875 C 1.726562 -14.195312 2.003906 -14.3125 2.328125 -14.3125 C 2.640625 -14.3125 2.90625 -14.195312 3.125 -13.96875 C 3.351562 -13.75 3.46875 -13.476562 3.46875 -13.15625 C 3.46875 -12.820312 3.351562 -12.539062 3.125 -12.3125 C 2.90625 -12.09375 2.640625 -11.984375 2.328125 -11.984375 Z M 3.15625 -10.3125 L 3.15625 0 L 1.453125 0 L 1.453125 -10.3125 Z M 3.15625 -10.3125 "/></g></g><g style="fill:#a6a6a6;fill-opacity:1;"><g transform="translate(220.219522, 95.789551)"><path style="stroke:none" d="M 6.46875 -10.5 C 7.726562 -10.5 8.742188 -10.117188 9.515625 -9.359375 C 10.296875 -8.597656 10.6875 -7.503906 10.6875 -6.078125 L 10.6875 0 L 9 0 L 9 -5.828125 C 9 -6.859375 8.738281 -7.644531 8.21875 -8.1875 C 7.707031 -8.738281 7.003906 -9.015625 6.109375 -9.015625 C 5.210938 -9.015625 4.492188 -8.726562 3.953125 -8.15625 C 3.421875 -7.59375 3.15625 -6.773438 3.15625 -5.703125 L 3.15625 0 L 1.453125 0 L 1.453125 -10.3125 L 3.15625 -10.3125 L 3.15625 -8.84375 C 3.5 -9.363281 3.960938 -9.769531 4.546875 -10.0625 C 5.128906 -10.351562 5.769531 -10.5 6.46875 -10.5 Z M 6.46875 -10.5 "/></g></g><g style="fill:#a6a6a6;fill-opacity:1;"><g transform="translate(232.25339, 95.789551)"><path style="stroke:none" d="M 5.703125 -10.484375 C 6.585938 -10.484375 7.363281 -10.285156 8.03125 -9.890625 C 8.707031 -9.503906 9.207031 -9.015625 9.53125 -8.421875 L 9.53125 -10.3125 L 11.265625 -10.3125 L 11.265625 0.21875 C 11.265625 1.164062 11.0625 2.003906 10.65625 2.734375 C 10.257812 3.472656 9.6875 4.046875 8.9375 4.453125 C 8.195312 4.867188 7.332031 5.078125 6.34375 5.078125 C 4.988281 5.078125 3.859375 4.753906 2.953125 4.109375 C 2.046875 3.472656 1.515625 2.601562 1.359375 1.5 L 3.046875 1.5 C 3.234375 2.132812 3.617188 2.640625 4.203125 3.015625 C 4.796875 3.398438 5.507812 3.59375 6.34375 3.59375 C 7.28125 3.59375 8.046875 3.296875 8.640625 2.703125 C 9.234375 2.117188 9.53125 1.289062 9.53125 0.21875 L 9.53125 -1.9375 C 9.195312 -1.332031 8.695312 -0.828125 8.03125 -0.421875 C 7.363281 -0.0234375 6.585938 0.171875 5.703125 0.171875 C 4.785156 0.171875 3.953125 -0.0507812 3.203125 -0.5 C 2.460938 -0.957031 1.878906 -1.59375 1.453125 -2.40625 C 1.023438 -3.21875 0.8125 -4.144531 0.8125 -5.1875 C 0.8125 -6.238281 1.023438 -7.160156 1.453125 -7.953125 C 1.878906 -8.753906 2.460938 -9.375 3.203125 -9.8125 C 3.953125 -10.257812 4.785156 -10.484375 5.703125 -10.484375 Z M 9.53125 -5.171875 C 9.53125 -5.953125 9.375 -6.628906 9.0625 -7.203125 C 8.75 -7.785156 8.328125 -8.226562 7.796875 -8.53125 C 7.265625 -8.84375 6.675781 -9 6.03125 -9 C 5.394531 -9 4.8125 -8.847656 4.28125 -8.546875 C 3.757812 -8.242188 3.34375 -7.800781 3.03125 -7.21875 C 2.71875 -6.644531 2.5625 -5.96875 2.5625 -5.1875 C 2.5625 -4.394531 2.71875 -3.707031 3.03125 -3.125 C 3.34375 -2.539062 3.757812 -2.09375 4.28125 -1.78125 C 4.8125 -1.476562 5.394531 -1.328125 6.03125 -1.328125 C 6.675781 -1.328125 7.265625 -1.476562 7.796875 -1.78125 C 8.328125 -2.09375 8.75 -2.539062 9.0625 -3.125 C 9.375 -3.707031 9.53125 -4.390625 9.53125 -5.171875 Z M 9.53125 -5.171875 "/></g></g><g style="fill:#a6a6a6;fill-opacity:1;"><g transform="translate(244.964169, 95.789551)"><path style="stroke:none" d=""/></g></g><g style="fill:#a6a6a6;fill-opacity:1;"><g transform="translate(249.984545, 95.789551)"><path style="stroke:none" d="M 5.609375 0.125 C 4.742188 0.125 3.96875 -0.0234375 3.28125 -0.328125 C 2.59375 -0.640625 2.054688 -1.066406 1.671875 -1.609375 C 1.285156 -2.148438 1.085938 -2.78125 1.078125 -3.5 L 2.890625 -3.5 C 2.953125 -2.882812 3.207031 -2.363281 3.65625 -1.9375 C 4.101562 -1.519531 4.753906 -1.3125 5.609375 -1.3125 C 6.421875 -1.3125 7.0625 -1.515625 7.53125 -1.921875 C 8 -2.335938 8.234375 -2.863281 8.234375 -3.5 C 8.234375 -4 8.09375 -4.40625 7.8125 -4.71875 C 7.539062 -5.03125 7.195312 -5.269531 6.78125 -5.4375 C 6.375 -5.601562 5.816406 -5.78125 5.109375 -5.96875 C 4.242188 -6.1875 3.550781 -6.410156 3.03125 -6.640625 C 2.507812 -6.867188 2.0625 -7.222656 1.6875 -7.703125 C 1.320312 -8.179688 1.140625 -8.832031 1.140625 -9.65625 C 1.140625 -10.363281 1.320312 -10.992188 1.6875 -11.546875 C 2.050781 -12.097656 2.5625 -12.523438 3.21875 -12.828125 C 3.882812 -13.128906 4.644531 -13.28125 5.5 -13.28125 C 6.726562 -13.28125 7.734375 -12.972656 8.515625 -12.359375 C 9.296875 -11.742188 9.738281 -10.929688 9.84375 -9.921875 L 7.953125 -9.921875 C 7.890625 -10.421875 7.625 -10.859375 7.15625 -11.234375 C 6.695312 -11.617188 6.085938 -11.8125 5.328125 -11.8125 C 4.609375 -11.8125 4.019531 -11.625 3.5625 -11.25 C 3.113281 -10.882812 2.890625 -10.367188 2.890625 -9.703125 C 2.890625 -9.234375 3.023438 -8.847656 3.296875 -8.546875 C 3.566406 -8.242188 3.898438 -8.015625 4.296875 -7.859375 C 4.691406 -7.703125 5.25 -7.519531 5.96875 -7.3125 C 6.832031 -7.070312 7.523438 -6.835938 8.046875 -6.609375 C 8.578125 -6.378906 9.03125 -6.019531 9.40625 -5.53125 C 9.78125 -5.050781 9.96875 -4.398438 9.96875 -3.578125 C 9.96875 -2.929688 9.796875 -2.328125 9.453125 -1.765625 C 9.117188 -1.203125 8.617188 -0.742188 7.953125 -0.390625 C 7.285156 -0.046875 6.503906 0.125 5.609375 0.125 Z M 5.609375 0.125 "/></g></g><g style="fill:#a6a6a6;fill-opacity:1;"><g transform="translate(261.021856, 95.789551)"><path style="stroke:none" d="M 3.53125 -8.890625 L 3.53125 -2.828125 C 3.53125 -2.316406 3.632812 -1.957031 3.84375 -1.75 C 4.0625 -1.550781 4.4375 -1.453125 4.96875 -1.453125 L 6.234375 -1.453125 L 6.234375 0 L 4.6875 0 C 3.726562 0 3.007812 -0.21875 2.53125 -0.65625 C 2.0625 -1.09375 1.828125 -1.816406 1.828125 -2.828125 L 1.828125 -8.890625 L 0.484375 -8.890625 L 0.484375 -10.3125 L 1.828125 -10.3125 L 1.828125 -12.90625 L 3.53125 -12.90625 L 3.53125 -10.3125 L 6.234375 -10.3125 L 6.234375 -8.890625 Z M 3.53125 -8.890625 "/></g></g><g style="fill:#a6a6a6;fill-opacity:1;"><g transform="translate(267.86612, 95.789551)"><path style="stroke:none" d="M 0.8125 -5.1875 C 0.8125 -6.238281 1.023438 -7.160156 1.453125 -7.953125 C 1.878906 -8.753906 2.460938 -9.375 3.203125 -9.8125 C 3.953125 -10.257812 4.785156 -10.484375 5.703125 -10.484375 C 6.597656 -10.484375 7.378906 -10.285156 8.046875 -9.890625 C 8.710938 -9.503906 9.207031 -9.015625 9.53125 -8.421875 L 9.53125 -10.3125 L 11.265625 -10.3125 L 11.265625 0 L 9.53125 0 L 9.53125 -1.921875 C 9.195312 -1.316406 8.691406 -0.816406 8.015625 -0.421875 C 7.347656 -0.0234375 6.570312 0.171875 5.6875 0.171875 C 4.769531 0.171875 3.941406 -0.0507812 3.203125 -0.5 C 2.460938 -0.957031 1.878906 -1.59375 1.453125 -2.40625 C 1.023438 -3.21875 0.8125 -4.144531 0.8125 -5.1875 Z M 9.53125 -5.171875 C 9.53125 -5.953125 9.375 -6.628906 9.0625 -7.203125 C 8.75 -7.785156 8.328125 -8.226562 7.796875 -8.53125 C 7.265625 -8.84375 6.675781 -9 6.03125 -9 C 5.394531 -9 4.8125 -8.847656 4.28125 -8.546875 C 3.757812 -8.242188 3.34375 -7.800781 3.03125 -7.21875 C 2.71875 -6.644531 2.5625 -5.96875 2.5625 -5.1875 C 2.5625 -4.394531 2.71875 -3.707031 3.03125 -3.125 C 3.34375 -2.539062 3.757812 -2.09375 4.28125 -1.78125 C 4.8125 -1.476562 5.394531 -1.328125 6.03125 -1.328125 C 6.675781 -1.328125 7.265625 -1.476562 7.796875 -1.78125 C 8.328125 -2.09375 8.75 -2.539062 9.0625 -3.125 C 9.375 -3.707031 9.53125 -4.390625 9.53125 -5.171875 Z M 9.53125 -5.171875 "/></g></g><g style="fill:#a6a6a6;fill-opacity:1;"><g transform="translate(280.5769, 95.789551)"><path style="stroke:none" d="M 3.15625 -8.640625 C 3.457031 -9.222656 3.882812 -9.675781 4.4375 -10 C 5 -10.332031 5.679688 -10.5 6.484375 -10.5 L 6.484375 -8.734375 L 6.03125 -8.734375 C 4.113281 -8.734375 3.15625 -7.691406 3.15625 -5.609375 L 3.15625 0 L 1.453125 0 L 1.453125 -10.3125 L 3.15625 -10.3125 Z M 3.15625 -8.640625 "/></g></g><g style="fill:#a6a6a6;fill-opacity:1;"><g transform="translate(287.590392, 95.789551)"><path style="stroke:none" d="M 3.53125 -8.890625 L 3.53125 -2.828125 C 3.53125 -2.316406 3.632812 -1.957031 3.84375 -1.75 C 4.0625 -1.550781 4.4375 -1.453125 4.96875 -1.453125 L 6.234375 -1.453125 L 6.234375 0 L 4.6875 0 C 3.726562 0 3.007812 -0.21875 2.53125 -0.65625 C 2.0625 -1.09375 1.828125 -1.816406 1.828125 -2.828125 L 1.828125 -8.890625 L 0.484375 -8.890625 L 0.484375 -10.3125 L 1.828125 -10.3125 L 1.828125 -12.90625 L 3.53125 -12.90625 L 3.53125 -10.3125 L 6.234375 -10.3125 L 6.234375 -8.890625 Z M 3.53125 -8.890625 "/></g></g><g style="fill:#a6a6a6;fill-opacity:1;"><g transform="translate(294.434657, 95.789551)"><path style="stroke:none" d="M 5.09375 0.171875 C 4.300781 0.171875 3.59375 0.0351562 2.96875 -0.234375 C 2.34375 -0.503906 1.847656 -0.878906 1.484375 -1.359375 C 1.117188 -1.847656 0.921875 -2.40625 0.890625 -3.03125 L 2.65625 -3.03125 C 2.707031 -2.507812 2.945312 -2.085938 3.375 -1.765625 C 3.8125 -1.441406 4.378906 -1.28125 5.078125 -1.28125 C 5.734375 -1.28125 6.25 -1.421875 6.625 -1.703125 C 7 -1.992188 7.1875 -2.359375 7.1875 -2.796875 C 7.1875 -3.253906 6.984375 -3.59375 6.578125 -3.8125 C 6.179688 -4.03125 5.5625 -4.242188 4.71875 -4.453125 C 3.957031 -4.660156 3.332031 -4.863281 2.84375 -5.0625 C 2.363281 -5.269531 1.953125 -5.578125 1.609375 -5.984375 C 1.265625 -6.398438 1.09375 -6.9375 1.09375 -7.59375 C 1.09375 -8.125 1.25 -8.609375 1.5625 -9.046875 C 1.875 -9.484375 2.316406 -9.832031 2.890625 -10.09375 C 3.472656 -10.351562 4.132812 -10.484375 4.875 -10.484375 C 6.007812 -10.484375 6.925781 -10.191406 7.625 -9.609375 C 8.332031 -9.035156 8.710938 -8.25 8.765625 -7.25 L 7.046875 -7.25 C 7.015625 -7.78125 6.800781 -8.207031 6.40625 -8.53125 C 6.007812 -8.863281 5.476562 -9.03125 4.8125 -9.03125 C 4.195312 -9.03125 3.707031 -8.894531 3.34375 -8.625 C 2.976562 -8.363281 2.796875 -8.019531 2.796875 -7.59375 C 2.796875 -7.257812 2.90625 -6.984375 3.125 -6.765625 C 3.351562 -6.546875 3.628906 -6.367188 3.953125 -6.234375 C 4.285156 -6.097656 4.75 -5.953125 5.34375 -5.796875 C 6.082031 -5.597656 6.679688 -5.398438 7.140625 -5.203125 C 7.609375 -5.003906 8.007812 -4.710938 8.34375 -4.328125 C 8.675781 -3.941406 8.847656 -3.429688 8.859375 -2.796875 C 8.859375 -2.234375 8.703125 -1.726562 8.390625 -1.28125 C 8.078125 -0.832031 7.632812 -0.476562 7.0625 -0.21875 C 6.488281 0.0390625 5.832031 0.171875 5.09375 0.171875 Z M 5.09375 0.171875 "/></g></g><g style="fill:#a6a6a6;fill-opacity:1;"><g transform="translate(304.249787, 95.789551)"><path style="stroke:none" d=""/></g></g><g style="fill:#a6a6a6;fill-opacity:1;"><g transform="translate(309.270163, 95.789551)"><path style="stroke:none" d="M 11.546875 -13.109375 L 11.546875 0 L 9.84375 0 L 9.84375 -5.9375 L 3.15625 -5.9375 L 3.15625 0 L 1.453125 0 L 1.453125 -13.109375 L 3.15625 -13.109375 L 3.15625 -7.359375 L 9.84375 -7.359375 L 9.84375 -13.109375 Z M 11.546875 -13.109375 "/></g></g><g style="fill:#a6a6a6;fill-opacity:1;"><g transform="translate(322.281782, 95.789551)"><path style="stroke:none" d="M 10.859375 -5.546875 C 10.859375 -5.222656 10.835938 -4.878906 10.796875 -4.515625 L 2.5625 -4.515625 C 2.625 -3.492188 2.96875 -2.695312 3.59375 -2.125 C 4.226562 -1.5625 5 -1.28125 5.90625 -1.28125 C 6.644531 -1.28125 7.257812 -1.453125 7.75 -1.796875 C 8.25 -2.140625 8.597656 -2.597656 8.796875 -3.171875 L 10.640625 -3.171875 C 10.367188 -2.179688 9.816406 -1.375 8.984375 -0.75 C 8.160156 -0.132812 7.132812 0.171875 5.90625 0.171875 C 4.925781 0.171875 4.050781 -0.046875 3.28125 -0.484375 C 2.507812 -0.921875 1.90625 -1.546875 1.46875 -2.359375 C 1.03125 -3.171875 0.8125 -4.109375 0.8125 -5.171875 C 0.8125 -6.234375 1.023438 -7.164062 1.453125 -7.96875 C 1.878906 -8.78125 2.476562 -9.398438 3.25 -9.828125 C 4.019531 -10.265625 4.90625 -10.484375 5.90625 -10.484375 C 6.882812 -10.484375 7.75 -10.269531 8.5 -9.84375 C 9.25 -9.414062 9.828125 -8.828125 10.234375 -8.078125 C 10.648438 -7.328125 10.859375 -6.484375 10.859375 -5.546875 Z M 9.09375 -5.90625 C 9.09375 -6.5625 8.945312 -7.125 8.65625 -7.59375 C 8.363281 -8.0625 7.96875 -8.414062 7.46875 -8.65625 C 6.976562 -8.90625 6.429688 -9.03125 5.828125 -9.03125 C 4.960938 -9.03125 4.222656 -8.753906 3.609375 -8.203125 C 3.003906 -7.648438 2.660156 -6.882812 2.578125 -5.90625 Z M 9.09375 -5.90625 "/></g></g><g style="fill:#a6a6a6;fill-opacity:1;"><g transform="translate(333.939594, 95.789551)"><path style="stroke:none" d="M 3.15625 -8.640625 C 3.457031 -9.222656 3.882812 -9.675781 4.4375 -10 C 5 -10.332031 5.679688 -10.5 6.484375 -10.5 L 6.484375 -8.734375 L 6.03125 -8.734375 C 4.113281 -8.734375 3.15625 -7.691406 3.15625 -5.609375 L 3.15625 0 L 1.453125 0 L 1.453125 -10.3125 L 3.15625 -10.3125 Z M 3.15625 -8.640625 "/></g></g><g style="fill:#a6a6a6;fill-opacity:1;"><g transform="translate(340.953086, 95.789551)"><path style="stroke:none" d="M 10.859375 -5.546875 C 10.859375 -5.222656 10.835938 -4.878906 10.796875 -4.515625 L 2.5625 -4.515625 C 2.625 -3.492188 2.96875 -2.695312 3.59375 -2.125 C 4.226562 -1.5625 5 -1.28125 5.90625 -1.28125 C 6.644531 -1.28125 7.257812 -1.453125 7.75 -1.796875 C 8.25 -2.140625 8.597656 -2.597656 8.796875 -3.171875 L 10.640625 -3.171875 C 10.367188 -2.179688 9.816406 -1.375 8.984375 -0.75 C 8.160156 -0.132812 7.132812 0.171875 5.90625 0.171875 C 4.925781 0.171875 4.050781 -0.046875 3.28125 -0.484375 C 2.507812 -0.921875 1.90625 -1.546875 1.46875 -2.359375 C 1.03125 -3.171875 0.8125 -4.109375 0.8125 -5.171875 C 0.8125 -6.234375 1.023438 -7.164062 1.453125 -7.96875 C 1.878906 -8.78125 2.476562 -9.398438 3.25 -9.828125 C 4.019531 -10.265625 4.90625 -10.484375 5.90625 -10.484375 C 6.882812 -10.484375 7.75 -10.269531 8.5 -9.84375 C 9.25 -9.414062 9.828125 -8.828125 10.234375 -8.078125 C 10.648438 -7.328125 10.859375 -6.484375 10.859375 -5.546875 Z M 9.09375 -5.90625 C 9.09375 -6.5625 8.945312 -7.125 8.65625 -7.59375 C 8.363281 -8.0625 7.96875 -8.414062 7.46875 -8.65625 C 6.976562 -8.90625 6.429688 -9.03125 5.828125 -9.03125 C 4.960938 -9.03125 4.222656 -8.753906 3.609375 -8.203125 C 3.003906 -7.648438 2.660156 -6.882812 2.578125 -5.90625 Z M 9.09375 -5.90625 "/></g></g></g></svg>