<svg xmlns="http://www.w3.org/2000/svg" xmlns:xlink="http://www.w3.org/1999/xlink" width="500" zoomAndPan="magnify" viewBox="0 0 375 225" height="300" preserveAspectRatio="xMidYMid meet" version="1.2"><defs><clipPath id="c04c321e51"><path d="M 28 11.648438 L 89 11.648438 L 89 181 L 28 181 Z M 28 11.648438 "/></clipPath><clipPath id="2468d8d2a0"><path d="M 0 182 L 142.050781 182 L 142.050781 213.398438 L 0 213.398438 Z M 0 182 "/></clipPath></defs><g id="6e877e44dc"><path style=" stroke:none;fill-rule:nonzero;fill:#55b1e7;fill-opacity:1;" d="M 90.5 90.917969 L 116.710938 109.382812 L 116.710938 112.121094 L 90.5 93.65625 Z M 90.5 97.320312 L 116.710938 115.785156 L 116.710938 118.519531 L 90.5 100.054688 Z M 90.5 103.722656 L 116.710938 122.1875 L 116.710938 124.925781 L 90.5 106.460938 Z M 90.5 110.125 L 116.710938 128.589844 L 116.710938 131.328125 L 90.5 112.863281 Z M 90.5 116.527344 L 116.710938 134.992188 L 116.710938 137.726562 L 90.5 119.261719 Z M 90.5 122.929688 L 116.710938 141.390625 L 116.710938 144.132812 L 90.5 125.667969 Z M 90.5 129.328125 L 116.710938 147.792969 L 116.710938 150.53125 L 90.5 132.066406 Z M 90.5 135.730469 L 116.710938 154.195312 L 116.710938 156.933594 L 90.5 138.46875 Z M 90.5 142.132812 L 116.710938 160.597656 L 116.710938 163.335938 L 90.5 144.871094 Z M 90.5 148.53125 L 116.710938 167 L 116.710938 169.738281 L 90.5 151.273438 Z M 90.5 154.9375 L 116.710938 173.402344 L 116.710938 176.140625 L 90.5 157.675781 Z M 90.5 161.339844 L 116.710938 179.804688 L 116.710938 182.542969 L 90.5 164.078125 Z M 90.5 167.738281 L 116.710938 186.203125 L 116.710938 188.941406 L 90.5 170.480469 Z M 68.707031 97.722656 L 68.707031 180.015625 C 76.160156 180.4375 83.472656 181.402344 90.5 182.882812 L 90.5 180.542969 L 95.425781 184.015625 C 98.421875 184.761719 101.363281 185.609375 104.226562 186.550781 L 90.5 176.878906 L 90.5 174.144531 L 112.402344 189.574219 C 115.027344 190.65625 117.550781 191.820312 119.972656 193.058594 L 119.972656 105.953125 L 90.5 85.1875 L 84.839844 88.441406 L 84.839844 141.707031 L 82.722656 141.707031 L 82.722656 89.664062 L 79.539062 91.492188 L 79.539062 112.332031 L 78.089844 112.332031 L 78.089844 92.328125 L 73.023438 95.242188 L 73.023438 127.820312 L 72.011719 127.820312 L 72.011719 95.824219 L 68.707031 97.722656 "/><g clip-rule="nonzero" clip-path="url(#c04c321e51)"><path style=" stroke:none;fill-rule:nonzero;fill:#3672c1;fill-opacity:1;" d="M 57.257812 18.28125 L 57.6875 18.664062 L 61.472656 22.003906 L 63.613281 23.898438 L 63.613281 36.429688 L 61.472656 34.539062 L 57.6875 31.195312 L 57.257812 30.816406 Z M 57.257812 33.078125 L 57.6875 33.457031 L 61.472656 36.800781 L 63.613281 38.695312 L 63.613281 51.222656 L 61.472656 49.332031 L 57.6875 45.992188 L 57.257812 45.609375 Z M 57.257812 47.871094 L 57.6875 48.253906 L 61.472656 51.59375 L 63.613281 53.488281 L 63.613281 66.019531 L 61.472656 64.128906 L 57.6875 60.785156 L 57.257812 60.40625 Z M 57.257812 62.667969 L 57.6875 63.050781 L 61.472656 66.390625 L 63.613281 68.28125 L 63.613281 80.816406 L 61.472656 78.921875 L 57.6875 75.578125 L 57.257812 75.203125 Z M 57.257812 77.460938 L 57.6875 77.839844 L 61.472656 81.183594 L 63.613281 83.074219 L 63.613281 95.605469 L 61.472656 93.714844 L 57.6875 90.371094 L 57.257812 89.992188 Z M 57.257812 92.253906 L 57.6875 92.632812 L 61.472656 95.976562 L 63.613281 97.867188 L 63.613281 110.402344 L 61.472656 108.507812 L 57.6875 105.167969 L 57.257812 104.785156 Z M 57.257812 107.050781 L 57.6875 107.429688 L 61.472656 110.769531 L 63.613281 112.664062 L 63.613281 125.199219 L 61.472656 123.300781 L 57.6875 119.960938 L 57.257812 119.582031 Z M 57.257812 121.84375 L 57.6875 122.222656 L 61.472656 125.5625 L 63.613281 127.457031 L 63.613281 139.992188 L 61.472656 138.097656 L 57.6875 134.757812 L 57.257812 134.375 Z M 57.257812 136.632812 L 57.6875 137.015625 L 61.472656 140.355469 L 63.613281 142.25 L 63.613281 154.78125 L 61.472656 152.890625 L 57.6875 149.546875 L 57.257812 149.167969 Z M 57.257812 151.429688 L 57.6875 151.808594 L 61.472656 155.152344 L 63.613281 157.046875 L 63.613281 169.578125 L 61.472656 167.683594 L 57.6875 164.339844 L 57.257812 163.960938 Z M 64.757812 24.910156 L 65.808594 25.835938 L 70.144531 29.664062 L 71.113281 30.519531 L 71.113281 43.050781 L 70.144531 42.195312 L 65.808594 38.367188 L 64.757812 37.4375 Z M 64.757812 39.699219 L 65.808594 40.628906 L 70.144531 44.457031 L 71.113281 45.3125 L 71.113281 57.84375 L 70.144531 56.988281 L 65.808594 53.164062 L 64.757812 52.234375 Z M 64.757812 54.496094 L 65.808594 55.421875 L 70.144531 59.253906 L 71.113281 60.105469 L 71.113281 72.640625 L 70.144531 71.785156 L 65.808594 67.957031 L 64.757812 67.027344 Z M 64.757812 69.289062 L 65.808594 70.21875 L 70.144531 74.046875 L 71.113281 74.902344 L 71.113281 87.433594 L 70.144531 86.578125 L 65.808594 82.753906 L 64.757812 81.824219 Z M 72.25 31.523438 L 74.476562 33.492188 L 78.609375 37.140625 L 78.609375 49.671875 L 74.476562 46.027344 L 72.25 44.058594 Z M 72.25 46.320312 L 74.476562 48.285156 L 78.609375 51.933594 L 78.609375 64.46875 L 74.476562 60.820312 L 72.25 58.855469 Z M 72.25 61.117188 L 74.476562 63.082031 L 78.609375 66.730469 L 78.609375 79.261719 L 74.476562 75.617188 L 72.25 73.648438 Z M 79.75 38.148438 L 86.105469 43.769531 L 86.105469 56.296875 L 79.75 50.679688 Z M 79.75 52.945312 L 86.105469 58.5625 L 86.105469 71.09375 L 79.75 65.476562 Z M 28.859375 29.972656 L 28.859375 58.265625 L 46.367188 65.371094 L 47.996094 66.03125 L 47.996094 180.238281 C 51.4375 179.964844 54.914062 179.8125 58.410156 179.773438 L 57.6875 179.136719 L 57.257812 178.757812 L 57.257812 166.222656 L 57.6875 166.605469 L 61.472656 169.945312 L 63.613281 171.835938 L 63.613281 179.8125 C 63.992188 179.820312 64.375 179.828125 64.757812 179.84375 L 64.757812 172.847656 L 65.808594 173.773438 L 66.09375 174.027344 L 66.09375 171.765625 L 65.808594 171.515625 L 64.757812 170.585938 L 64.757812 158.050781 L 65.808594 158.980469 L 66.09375 159.230469 L 66.09375 156.96875 L 65.808594 156.71875 L 64.757812 155.789062 L 64.757812 143.257812 L 65.808594 144.1875 L 66.09375 144.4375 L 66.09375 142.179688 L 65.808594 141.925781 L 64.757812 141 L 64.757812 128.46875 L 65.808594 129.398438 L 66.09375 129.648438 L 66.09375 127.382812 L 65.808594 127.132812 L 64.757812 126.203125 L 64.757812 113.671875 L 65.808594 114.601562 L 66.09375 114.851562 L 66.09375 112.589844 L 65.808594 112.339844 L 64.757812 111.410156 L 64.757812 98.878906 L 65.808594 99.804688 L 66.09375 100.054688 L 66.09375 97.796875 L 65.808594 97.542969 L 64.757812 96.617188 L 64.757812 84.082031 L 65.808594 85.011719 L 70.144531 88.839844 L 71.113281 89.695312 L 71.113281 93.328125 L 72.25 92.671875 L 72.25 90.703125 L 73.601562 91.894531 L 74.625 91.308594 L 75.152344 91.003906 L 74.476562 90.410156 L 72.25 88.445312 L 72.25 75.910156 L 74.476562 77.878906 L 78.609375 81.523438 L 78.609375 89.015625 L 79.75 88.359375 L 79.75 82.535156 L 83.742188 86.0625 L 85.296875 85.171875 L 79.75 80.273438 L 79.75 67.738281 L 86.105469 73.355469 L 86.105469 84.707031 L 88.117188 83.550781 L 88.117188 41.527344 L 86.234375 39.863281 L 78.546875 33.074219 L 69.875 25.410156 L 65.539062 21.585938 L 61.203125 17.753906 L 57.421875 14.410156 L 54.285156 11.644531 L 28.859375 29.972656 "/></g><path style=" stroke:none;fill-rule:nonzero;fill:#55b1e7;fill-opacity:1;" d="M -0.00390625 77.289062 L 22 65.019531 L 22 70.011719 L 24.457031 68.273438 L 44.003906 76.203125 L 44.003906 69.160156 L 22.523438 60.445312 L -0.00390625 77.289062 "/><path style=" stroke:none;fill-rule:nonzero;fill:#55b1e7;fill-opacity:1;" d="M -0.00390625 89.019531 L 22 76.75 L 22 81.742188 L 24.457031 80.003906 L 44.003906 87.933594 L 44.003906 80.890625 L 22.523438 72.171875 L -0.00390625 89.019531 "/><path style=" stroke:none;fill-rule:nonzero;fill:#55b1e7;fill-opacity:1;" d="M -0.00390625 100.75 L 22 88.476562 L 22 93.472656 L 24.457031 91.730469 L 44.003906 99.664062 L 44.003906 92.617188 L 22.523438 83.902344 L -0.00390625 100.75 "/><path style=" stroke:none;fill-rule:nonzero;fill:#55b1e7;fill-opacity:1;" d="M -0.00390625 112.480469 L 22 100.207031 L 22 105.199219 L 24.457031 103.460938 L 44.003906 111.390625 L 44.003906 104.347656 L 22.523438 95.628906 L -0.00390625 112.480469 "/><path style=" stroke:none;fill-rule:nonzero;fill:#55b1e7;fill-opacity:1;" d="M -0.00390625 124.207031 L 22 111.9375 L 22 116.929688 L 24.457031 115.191406 L 44.003906 123.121094 L 44.003906 116.078125 L 22.523438 107.359375 L -0.00390625 124.207031 "/><path style=" stroke:none;fill-rule:nonzero;fill:#55b1e7;fill-opacity:1;" d="M -0.00390625 135.9375 L 22 123.664062 L 22 128.660156 L 24.457031 126.921875 L 44.003906 134.851562 L 44.003906 127.804688 L 22.523438 119.089844 L -0.00390625 135.9375 "/><path style=" stroke:none;fill-rule:nonzero;fill:#55b1e7;fill-opacity:1;" d="M -0.00390625 147.667969 L 22 135.394531 L 22 140.386719 L 24.457031 138.648438 L 44.003906 146.582031 L 44.003906 139.535156 L 22.523438 130.820312 L -0.00390625 147.667969 "/><path style=" stroke:none;fill-rule:nonzero;fill:#55b1e7;fill-opacity:1;" d="M -0.00390625 159.394531 L 22 147.125 L 22 152.117188 L 24.457031 150.378906 L 44.003906 158.308594 L 44.003906 151.265625 L 22.523438 142.546875 L -0.00390625 159.394531 "/><path style=" stroke:none;fill-rule:nonzero;fill:#55b1e7;fill-opacity:1;" d="M -0.00390625 171.125 L 22 158.855469 L 22 163.847656 L 24.457031 162.109375 L 44.003906 170.039062 L 44.003906 162.992188 L 22.523438 154.277344 L -0.00390625 171.125 "/><path style=" stroke:none;fill-rule:nonzero;fill:#55b1e7;fill-opacity:1;" d="M -0.00390625 182.855469 L 22 170.582031 L 22 175.574219 L 24.457031 173.835938 L 41.757812 180.859375 L 41.761719 180.859375 C 42.507812 180.765625 43.253906 180.679688 44.003906 180.601562 L 44.003906 174.722656 L 22.523438 166.003906 L -0.00390625 182.855469 "/><path style=" stroke:none;fill-rule:nonzero;fill:#55b1e7;fill-opacity:1;" d="M 5.550781 190.429688 C 7.027344 189.78125 8.539062 189.160156 10.085938 188.5625 C 10.789062 188.292969 11.5 188.023438 12.214844 187.765625 L 22 182.3125 L 22 184.671875 C 25.6875 183.671875 29.476562 182.820312 33.339844 182.125 L 22.523438 177.734375 L 5.550781 190.429688 "/><g clip-rule="nonzero" clip-path="url(#2468d8d2a0)"><path style=" stroke:none;fill-rule:nonzero;fill:#3672c1;fill-opacity:1;" d="M 59.980469 182.375 C 96.007812 182.375 127.160156 195.027344 142.042969 213.402344 C 120.34375 201.457031 91.566406 194.179688 59.980469 194.179688 C 51.058594 194.179688 42.351562 194.761719 33.972656 195.867188 C 33.402344 195.941406 32.835938 196.015625 32.269531 196.097656 C 30 196.414062 27.753906 196.773438 25.535156 197.167969 C 24.886719 197.285156 24.246094 197.402344 23.601562 197.523438 C 6.449219 200.765625 -9.082031 206.246094 -22.074219 213.398438 C -7.191406 195.023438 23.960938 182.375 59.980469 182.375 "/></g><g style="fill:#3c7da2;fill-opacity:1;"><g transform="translate(141.768582, 98.797921)"><path style="stroke:none" d="M 18.3125 -20.71875 C 18.195312 -21.863281 17.707031 -22.753906 16.84375 -23.390625 C 15.976562 -24.023438 14.8125 -24.34375 13.34375 -24.34375 C 11.832031 -24.34375 10.675781 -24.035156 9.875 -23.421875 C 9.070312 -22.804688 8.671875 -22.03125 8.671875 -21.09375 C 8.648438 -20.050781 9.09375 -19.257812 10 -18.71875 C 10.914062 -18.1875 12.003906 -17.773438 13.265625 -17.484375 L 15.875 -16.859375 C 17.5625 -16.484375 19.0625 -15.9375 20.375 -15.21875 C 21.6875 -14.5 22.71875 -13.570312 23.46875 -12.4375 C 24.226562 -11.300781 24.609375 -9.925781 24.609375 -8.3125 C 24.597656 -5.644531 23.597656 -3.523438 21.609375 -1.953125 C 19.628906 -0.378906 16.863281 0.40625 13.3125 0.40625 C 9.78125 0.40625 6.960938 -0.394531 4.859375 -2 C 2.753906 -3.613281 1.664062 -5.992188 1.59375 -9.140625 L 7.546875 -9.140625 C 7.648438 -7.679688 8.222656 -6.582031 9.265625 -5.84375 C 10.316406 -5.113281 11.640625 -4.75 13.234375 -4.75 C 14.796875 -4.75 16.039062 -5.078125 16.96875 -5.734375 C 17.90625 -6.398438 18.378906 -7.265625 18.390625 -8.328125 C 18.378906 -9.304688 17.945312 -10.0625 17.09375 -10.59375 C 16.25 -11.125 15.035156 -11.578125 13.453125 -11.953125 L 10.28125 -12.75 C 7.832031 -13.34375 5.894531 -14.273438 4.46875 -15.546875 C 3.050781 -16.828125 2.347656 -18.539062 2.359375 -20.6875 C 2.347656 -22.445312 2.816406 -23.984375 3.765625 -25.296875 C 4.722656 -26.617188 6.035156 -27.644531 7.703125 -28.375 C 9.367188 -29.113281 11.257812 -29.484375 13.375 -29.484375 C 15.539062 -29.484375 17.429688 -29.113281 19.046875 -28.375 C 20.660156 -27.632812 21.914062 -26.609375 22.8125 -25.296875 C 23.707031 -23.984375 24.171875 -22.457031 24.203125 -20.71875 Z M 18.3125 -20.71875 "/></g></g><g style="fill:#3c7da2;fill-opacity:1;"><g transform="translate(167.958411, 98.797921)"><path style="stroke:none" d="M 12.265625 0.421875 C 10.066406 0.421875 8.160156 -0.046875 6.546875 -0.984375 C 4.941406 -1.929688 3.703125 -3.25 2.828125 -4.9375 C 1.960938 -6.625 1.53125 -8.585938 1.53125 -10.828125 C 1.53125 -13.078125 1.960938 -15.046875 2.828125 -16.734375 C 3.703125 -18.429688 4.941406 -19.75 6.546875 -20.6875 C 8.160156 -21.632812 10.066406 -22.109375 12.265625 -22.109375 C 14.472656 -22.109375 16.378906 -21.632812 17.984375 -20.6875 C 19.585938 -19.75 20.828125 -18.429688 21.703125 -16.734375 C 22.578125 -15.046875 23.015625 -13.078125 23.015625 -10.828125 C 23.015625 -8.585938 22.578125 -6.625 21.703125 -4.9375 C 20.828125 -3.25 19.585938 -1.929688 17.984375 -0.984375 C 16.378906 -0.046875 14.472656 0.421875 12.265625 0.421875 Z M 12.296875 -4.265625 C 13.796875 -4.265625 14.929688 -4.890625 15.703125 -6.140625 C 16.472656 -7.390625 16.859375 -8.960938 16.859375 -10.859375 C 16.859375 -12.765625 16.472656 -14.34375 15.703125 -15.59375 C 14.929688 -16.851562 13.796875 -17.484375 12.296875 -17.484375 C 10.773438 -17.484375 9.625 -16.851562 8.84375 -15.59375 C 8.070312 -14.34375 7.6875 -12.765625 7.6875 -10.859375 C 7.6875 -8.960938 8.070312 -7.390625 8.84375 -6.140625 C 9.625 -4.890625 10.773438 -4.265625 12.296875 -4.265625 Z M 12.296875 -4.265625 "/></g></g><g style="fill:#3c7da2;fill-opacity:1;"><g transform="translate(192.500724, 98.797921)"><path style="stroke:none" d="M 12.265625 0.421875 C 10.035156 0.421875 8.117188 -0.0507812 6.515625 -1 C 4.910156 -1.945312 3.675781 -3.269531 2.8125 -4.96875 C 1.957031 -6.664062 1.53125 -8.617188 1.53125 -10.828125 C 1.53125 -13.054688 1.960938 -15.015625 2.828125 -16.703125 C 3.703125 -18.398438 4.9375 -19.722656 6.53125 -20.671875 C 8.132812 -21.628906 10.039062 -22.109375 12.25 -22.109375 C 14.144531 -22.109375 15.8125 -21.757812 17.25 -21.0625 C 18.6875 -20.375 19.816406 -19.40625 20.640625 -18.15625 C 21.472656 -16.90625 21.929688 -15.4375 22.015625 -13.75 L 16.3125 -13.75 C 16.144531 -14.84375 15.71875 -15.722656 15.03125 -16.390625 C 14.34375 -17.054688 13.445312 -17.390625 12.34375 -17.390625 C 10.9375 -17.390625 9.804688 -16.820312 8.953125 -15.6875 C 8.109375 -14.5625 7.6875 -12.96875 7.6875 -10.90625 C 7.6875 -8.820312 8.109375 -7.207031 8.953125 -6.0625 C 9.804688 -4.925781 10.9375 -4.359375 12.34375 -4.359375 C 13.382812 -4.359375 14.257812 -4.671875 14.96875 -5.296875 C 15.675781 -5.929688 16.125 -6.832031 16.3125 -8 L 22.015625 -8 C 21.921875 -6.332031 21.46875 -4.863281 20.65625 -3.59375 C 19.851562 -2.320312 18.738281 -1.332031 17.3125 -0.625 C 15.894531 0.0703125 14.210938 0.421875 12.265625 0.421875 Z M 12.265625 0.421875 "/></g></g><g style="fill:#3c7da2;fill-opacity:1;"><g transform="translate(215.99204, 98.797921)"><path style="stroke:none" d="M 2.421875 0 L 2.421875 -21.8125 L 8.46875 -21.8125 L 8.46875 0 Z M 5.453125 -24.625 C 4.554688 -24.625 3.785156 -24.925781 3.140625 -25.53125 C 2.503906 -26.132812 2.1875 -26.859375 2.1875 -27.703125 C 2.1875 -28.546875 2.503906 -29.265625 3.140625 -29.859375 C 3.785156 -30.453125 4.554688 -30.75 5.453125 -30.75 C 6.347656 -30.75 7.117188 -30.453125 7.765625 -29.859375 C 8.410156 -29.265625 8.734375 -28.546875 8.734375 -27.703125 C 8.734375 -26.859375 8.410156 -26.132812 7.765625 -25.53125 C 7.117188 -24.925781 6.347656 -24.625 5.453125 -24.625 Z M 5.453125 -24.625 "/></g></g><g style="fill:#3c7da2;fill-opacity:1;"><g transform="translate(226.871335, 98.797921)"><path style="stroke:none" d="M 12.359375 0.421875 C 10.117188 0.421875 8.1875 -0.03125 6.5625 -0.9375 C 4.945312 -1.851562 3.703125 -3.148438 2.828125 -4.828125 C 1.960938 -6.515625 1.53125 -8.507812 1.53125 -10.8125 C 1.53125 -13.050781 1.960938 -15.019531 2.828125 -16.71875 C 3.703125 -18.414062 4.929688 -19.738281 6.515625 -20.6875 C 8.109375 -21.632812 9.972656 -22.109375 12.109375 -22.109375 C 14.035156 -22.109375 15.769531 -21.695312 17.3125 -20.875 C 18.863281 -20.0625 20.09375 -18.832031 21 -17.1875 C 21.914062 -15.550781 22.375 -13.492188 22.375 -11.015625 L 22.375 -9.359375 L 7.515625 -9.359375 L 7.515625 -9.34375 C 7.515625 -7.71875 7.957031 -6.4375 8.84375 -5.5 C 9.738281 -4.5625 10.941406 -4.09375 12.453125 -4.09375 C 13.472656 -4.09375 14.347656 -4.304688 15.078125 -4.734375 C 15.816406 -5.160156 16.335938 -5.789062 16.640625 -6.625 L 22.25 -6.25 C 21.820312 -4.21875 20.738281 -2.597656 19 -1.390625 C 17.269531 -0.179688 15.054688 0.421875 12.359375 0.421875 Z M 7.515625 -13.109375 L 16.671875 -13.109375 C 16.660156 -14.410156 16.242188 -15.476562 15.421875 -16.3125 C 14.597656 -17.15625 13.53125 -17.578125 12.21875 -17.578125 C 10.875 -17.578125 9.769531 -17.140625 8.90625 -16.265625 C 8.039062 -15.398438 7.578125 -14.347656 7.515625 -13.109375 Z M 7.515625 -13.109375 "/></g></g><g style="fill:#3c7da2;fill-opacity:1;"><g transform="translate(250.774527, 98.797921)"><path style="stroke:none" d="M 14.015625 -21.8125 L 14.015625 -17.265625 L 9.921875 -17.265625 L 9.921875 -6.703125 C 9.921875 -5.867188 10.109375 -5.304688 10.484375 -5.015625 C 10.859375 -4.722656 11.347656 -4.578125 11.953125 -4.578125 C 12.242188 -4.578125 12.53125 -4.601562 12.8125 -4.65625 C 13.09375 -4.707031 13.3125 -4.742188 13.46875 -4.765625 L 14.421875 -0.265625 C 14.117188 -0.171875 13.691406 -0.0625 13.140625 0.0625 C 12.585938 0.1875 11.921875 0.265625 11.140625 0.296875 C 8.941406 0.390625 7.175781 -0.0820312 5.84375 -1.125 C 4.507812 -2.175781 3.847656 -3.769531 3.859375 -5.90625 L 3.859375 -17.265625 L 0.875 -17.265625 L 0.875 -21.8125 L 3.859375 -21.8125 L 3.859375 -27.046875 L 9.921875 -27.046875 L 9.921875 -21.8125 Z M 14.015625 -21.8125 "/></g></g><g style="fill:#3c7da2;fill-opacity:1;"><g transform="translate(266.312307, 98.797921)"><path style="stroke:none" d="M 5.9375 8.5 C 5.070312 8.5 4.332031 8.421875 3.71875 8.265625 C 3.113281 8.117188 2.640625 7.972656 2.296875 7.828125 L 3.671875 3.140625 C 4.734375 3.460938 5.628906 3.546875 6.359375 3.390625 C 7.097656 3.242188 7.679688 2.671875 8.109375 1.671875 L 8.515625 0.625 L 0.6875 -21.8125 L 7.046875 -21.8125 L 11.5625 -5.796875 L 11.796875 -5.796875 L 16.34375 -21.8125 L 22.75 -21.8125 L 14.234375 2.5 C 13.617188 4.238281 12.632812 5.671875 11.28125 6.796875 C 9.9375 7.929688 8.15625 8.5 5.9375 8.5 Z M 5.9375 8.5 "/></g></g><g style="fill:#3c7da2;fill-opacity:1;"><g transform="translate(289.746811, 98.797921)"><path style="stroke:none" d=""/></g></g><g style="fill:#3c7da2;fill-opacity:1;"><g transform="translate(299.021197, 98.797921)"><path style="stroke:none" d="M 2.53125 0 L 2.53125 -29.09375 L 22.125 -29.09375 L 22.125 -24.015625 L 8.671875 -24.015625 L 8.671875 -17.09375 L 21.125 -17.09375 L 21.125 -12.015625 L 8.671875 -12.015625 L 8.671875 -5.078125 L 22.1875 -5.078125 L 22.1875 0 Z M 2.53125 0 "/></g></g><g style="fill:#3c7da2;fill-opacity:1;"><g transform="translate(323.520906, 98.797921)"><path style="stroke:none" d="M 2.21875 0 L 2.21875 -3.65625 L 16.734375 -24.015625 L 2.1875 -24.015625 L 2.1875 -29.09375 L 24.453125 -29.09375 L 24.453125 -25.4375 L 9.921875 -5.078125 L 24.484375 -5.078125 L 24.484375 0 Z M 2.21875 0 "/></g></g><g style="fill:#a6a6a6;fill-opacity:1;"><g transform="translate(167.438768, 126.948)"><path style="stroke:none" d="M 3.65625 0.078125 C 3.09375 0.078125 2.585938 -0.0195312 2.140625 -0.21875 C 1.691406 -0.414062 1.34375 -0.691406 1.09375 -1.046875 C 0.84375 -1.398438 0.710938 -1.8125 0.703125 -2.28125 L 1.890625 -2.28125 C 1.929688 -1.882812 2.097656 -1.546875 2.390625 -1.265625 C 2.679688 -0.992188 3.101562 -0.859375 3.65625 -0.859375 C 4.1875 -0.859375 4.601562 -0.988281 4.90625 -1.25 C 5.21875 -1.519531 5.375 -1.863281 5.375 -2.28125 C 5.375 -2.601562 5.28125 -2.867188 5.09375 -3.078125 C 4.914062 -3.285156 4.691406 -3.441406 4.421875 -3.546875 C 4.148438 -3.648438 3.789062 -3.765625 3.34375 -3.890625 C 2.769531 -4.035156 2.3125 -4.179688 1.96875 -4.328125 C 1.632812 -4.472656 1.347656 -4.703125 1.109375 -5.015625 C 0.867188 -5.335938 0.75 -5.765625 0.75 -6.296875 C 0.75 -6.753906 0.863281 -7.164062 1.09375 -7.53125 C 1.332031 -7.894531 1.664062 -8.171875 2.09375 -8.359375 C 2.53125 -8.554688 3.023438 -8.65625 3.578125 -8.65625 C 4.378906 -8.65625 5.035156 -8.453125 5.546875 -8.046875 C 6.054688 -7.648438 6.347656 -7.125 6.421875 -6.46875 L 5.1875 -6.46875 C 5.144531 -6.789062 4.972656 -7.078125 4.671875 -7.328125 C 4.367188 -7.578125 3.96875 -7.703125 3.46875 -7.703125 C 3 -7.703125 2.617188 -7.582031 2.328125 -7.34375 C 2.035156 -7.101562 1.890625 -6.765625 1.890625 -6.328125 C 1.890625 -6.015625 1.976562 -5.757812 2.15625 -5.5625 C 2.332031 -5.375 2.546875 -5.226562 2.796875 -5.125 C 3.054688 -5.019531 3.421875 -4.898438 3.890625 -4.765625 C 4.453125 -4.609375 4.90625 -4.453125 5.25 -4.296875 C 5.59375 -4.148438 5.882812 -3.921875 6.125 -3.609375 C 6.375 -3.296875 6.5 -2.867188 6.5 -2.328125 C 6.5 -1.910156 6.390625 -1.515625 6.171875 -1.140625 C 5.953125 -0.773438 5.625 -0.476562 5.1875 -0.25 C 4.75 -0.03125 4.238281 0.078125 3.65625 0.078125 Z M 3.65625 0.078125 "/></g></g><g style="fill:#a6a6a6;fill-opacity:1;"><g transform="translate(174.633584, 126.948)"><path style="stroke:none" d="M 9.03125 -6.84375 C 9.550781 -6.84375 10.015625 -6.734375 10.421875 -6.515625 C 10.835938 -6.296875 11.160156 -5.96875 11.390625 -5.53125 C 11.628906 -5.101562 11.75 -4.582031 11.75 -3.96875 L 11.75 0 L 10.640625 0 L 10.640625 -3.796875 C 10.640625 -4.472656 10.472656 -4.988281 10.140625 -5.34375 C 9.816406 -5.695312 9.375 -5.875 8.8125 -5.875 C 8.226562 -5.875 7.765625 -5.6875 7.421875 -5.3125 C 7.078125 -4.945312 6.90625 -4.410156 6.90625 -3.703125 L 6.90625 0 L 5.796875 0 L 5.796875 -3.796875 C 5.796875 -4.472656 5.628906 -4.988281 5.296875 -5.34375 C 4.972656 -5.695312 4.53125 -5.875 3.96875 -5.875 C 3.382812 -5.875 2.921875 -5.6875 2.578125 -5.3125 C 2.234375 -4.945312 2.0625 -4.410156 2.0625 -3.703125 L 2.0625 0 L 0.9375 0 L 0.9375 -6.71875 L 2.0625 -6.71875 L 2.0625 -5.75 C 2.28125 -6.101562 2.578125 -6.375 2.953125 -6.5625 C 3.328125 -6.75 3.738281 -6.84375 4.1875 -6.84375 C 4.75 -6.84375 5.242188 -6.710938 5.671875 -6.453125 C 6.109375 -6.203125 6.429688 -5.832031 6.640625 -5.34375 C 6.835938 -5.820312 7.148438 -6.191406 7.578125 -6.453125 C 8.015625 -6.710938 8.5 -6.84375 9.03125 -6.84375 Z M 9.03125 -6.84375 "/></g></g><g style="fill:#a6a6a6;fill-opacity:1;"><g transform="translate(187.258221, 126.948)"><path style="stroke:none" d="M 0.53125 -3.390625 C 0.53125 -4.078125 0.664062 -4.675781 0.9375 -5.1875 C 1.21875 -5.707031 1.601562 -6.109375 2.09375 -6.390625 C 2.582031 -6.679688 3.125 -6.828125 3.71875 -6.828125 C 4.300781 -6.828125 4.8125 -6.703125 5.25 -6.453125 C 5.6875 -6.203125 6.007812 -5.882812 6.21875 -5.5 L 6.21875 -6.71875 L 7.34375 -6.71875 L 7.34375 0 L 6.21875 0 L 6.21875 -1.25 C 6 -0.851562 5.671875 -0.523438 5.234375 -0.265625 C 4.796875 -0.015625 4.285156 0.109375 3.703125 0.109375 C 3.109375 0.109375 2.566406 -0.0351562 2.078125 -0.328125 C 1.597656 -0.617188 1.21875 -1.03125 0.9375 -1.5625 C 0.664062 -2.101562 0.53125 -2.710938 0.53125 -3.390625 Z M 6.21875 -3.375 C 6.21875 -3.882812 6.113281 -4.328125 5.90625 -4.703125 C 5.707031 -5.078125 5.429688 -5.363281 5.078125 -5.5625 C 4.734375 -5.757812 4.351562 -5.859375 3.9375 -5.859375 C 3.519531 -5.859375 3.140625 -5.757812 2.796875 -5.5625 C 2.453125 -5.375 2.175781 -5.085938 1.96875 -4.703125 C 1.769531 -4.328125 1.671875 -3.890625 1.671875 -3.390625 C 1.671875 -2.867188 1.769531 -2.414062 1.96875 -2.03125 C 2.175781 -1.65625 2.453125 -1.367188 2.796875 -1.171875 C 3.140625 -0.972656 3.519531 -0.875 3.9375 -0.875 C 4.351562 -0.875 4.734375 -0.972656 5.078125 -1.171875 C 5.429688 -1.367188 5.707031 -1.65625 5.90625 -2.03125 C 6.113281 -2.414062 6.21875 -2.863281 6.21875 -3.375 Z M 6.21875 -3.375 "/></g></g><g style="fill:#a6a6a6;fill-opacity:1;"><g transform="translate(195.54391, 126.948)"><path style="stroke:none" d="M 2.0625 -5.625 C 2.257812 -6.007812 2.539062 -6.304688 2.90625 -6.515625 C 3.269531 -6.734375 3.710938 -6.84375 4.234375 -6.84375 L 4.234375 -5.6875 L 3.9375 -5.6875 C 2.6875 -5.6875 2.0625 -5.007812 2.0625 -3.65625 L 2.0625 0 L 0.9375 0 L 0.9375 -6.71875 L 2.0625 -6.71875 Z M 2.0625 -5.625 "/></g></g><g style="fill:#a6a6a6;fill-opacity:1;"><g transform="translate(200.115746, 126.948)"><path style="stroke:none" d="M 2.3125 -5.796875 L 2.3125 -1.84375 C 2.3125 -1.507812 2.378906 -1.273438 2.515625 -1.140625 C 2.648438 -1.003906 2.890625 -0.9375 3.234375 -0.9375 L 4.0625 -0.9375 L 4.0625 0 L 3.046875 0 C 2.429688 0 1.96875 -0.140625 1.65625 -0.421875 C 1.34375 -0.710938 1.1875 -1.1875 1.1875 -1.84375 L 1.1875 -5.796875 L 0.3125 -5.796875 L 0.3125 -6.71875 L 1.1875 -6.71875 L 1.1875 -8.421875 L 2.3125 -8.421875 L 2.3125 -6.71875 L 4.0625 -6.71875 L 4.0625 -5.796875 Z M 2.3125 -5.796875 "/></g></g><g style="fill:#a6a6a6;fill-opacity:1;"><g transform="translate(204.57727, 126.948)"><path style="stroke:none" d="M 7.078125 -3.625 C 7.078125 -3.40625 7.066406 -3.175781 7.046875 -2.9375 L 1.671875 -2.9375 C 1.710938 -2.28125 1.9375 -1.765625 2.34375 -1.390625 C 2.757812 -1.015625 3.257812 -0.828125 3.84375 -0.828125 C 4.332031 -0.828125 4.738281 -0.941406 5.0625 -1.171875 C 5.382812 -1.398438 5.609375 -1.703125 5.734375 -2.078125 L 6.9375 -2.078125 C 6.757812 -1.429688 6.398438 -0.90625 5.859375 -0.5 C 5.316406 -0.09375 4.644531 0.109375 3.84375 0.109375 C 3.207031 0.109375 2.640625 -0.03125 2.140625 -0.3125 C 1.640625 -0.601562 1.242188 -1.007812 0.953125 -1.53125 C 0.671875 -2.0625 0.53125 -2.675781 0.53125 -3.375 C 0.53125 -4.070312 0.664062 -4.679688 0.9375 -5.203125 C 1.21875 -5.722656 1.609375 -6.125 2.109375 -6.40625 C 2.617188 -6.6875 3.195312 -6.828125 3.84375 -6.828125 C 4.488281 -6.828125 5.054688 -6.6875 5.546875 -6.40625 C 6.035156 -6.132812 6.410156 -5.753906 6.671875 -5.265625 C 6.941406 -4.773438 7.078125 -4.226562 7.078125 -3.625 Z M 5.921875 -3.84375 C 5.921875 -4.269531 5.828125 -4.632812 5.640625 -4.9375 C 5.453125 -5.25 5.195312 -5.484375 4.875 -5.640625 C 4.550781 -5.804688 4.191406 -5.890625 3.796875 -5.890625 C 3.234375 -5.890625 2.753906 -5.707031 2.359375 -5.34375 C 1.960938 -4.988281 1.738281 -4.488281 1.6875 -3.84375 Z M 5.921875 -3.84375 "/></g></g><g style="fill:#a6a6a6;fill-opacity:1;"><g transform="translate(212.176568, 126.948)"><path style="stroke:none" d="M 2.0625 -5.625 C 2.257812 -6.007812 2.539062 -6.304688 2.90625 -6.515625 C 3.269531 -6.734375 3.710938 -6.84375 4.234375 -6.84375 L 4.234375 -5.6875 L 3.9375 -5.6875 C 2.6875 -5.6875 2.0625 -5.007812 2.0625 -3.65625 L 2.0625 0 L 0.9375 0 L 0.9375 -6.71875 L 2.0625 -6.71875 Z M 2.0625 -5.625 "/></g></g><g style="fill:#a6a6a6;fill-opacity:1;"><g transform="translate(216.748404, 126.948)"><path style="stroke:none" d=""/></g></g><g style="fill:#a6a6a6;fill-opacity:1;"><g transform="translate(220.021002, 126.948)"><path style="stroke:none" d="M 2.0625 -0.90625 L 5.046875 -0.90625 L 5.046875 0 L 0.9375 0 L 0.9375 -8.546875 L 2.0625 -8.546875 Z M 2.0625 -0.90625 "/></g></g><g style="fill:#a6a6a6;fill-opacity:1;"><g transform="translate(225.316001, 126.948)"><path style="stroke:none" d="M 1.515625 -7.8125 C 1.304688 -7.8125 1.128906 -7.882812 0.984375 -8.03125 C 0.835938 -8.175781 0.765625 -8.359375 0.765625 -8.578125 C 0.765625 -8.785156 0.835938 -8.960938 0.984375 -9.109375 C 1.128906 -9.253906 1.304688 -9.328125 1.515625 -9.328125 C 1.722656 -9.328125 1.894531 -9.253906 2.03125 -9.109375 C 2.175781 -8.960938 2.25 -8.785156 2.25 -8.578125 C 2.25 -8.359375 2.175781 -8.175781 2.03125 -8.03125 C 1.894531 -7.882812 1.722656 -7.8125 1.515625 -7.8125 Z M 2.0625 -6.71875 L 2.0625 0 L 0.9375 0 L 0.9375 -6.71875 Z M 2.0625 -6.71875 "/></g></g><g style="fill:#a6a6a6;fill-opacity:1;"><g transform="translate(228.331201, 126.948)"><path style="stroke:none" d="M 3.453125 -1.03125 L 5.53125 -6.71875 L 6.71875 -6.71875 L 4.078125 0 L 2.78125 0 L 0.140625 -6.71875 L 1.34375 -6.71875 Z M 3.453125 -1.03125 "/></g></g><g style="fill:#a6a6a6;fill-opacity:1;"><g transform="translate(235.207337, 126.948)"><path style="stroke:none" d="M 1.515625 -7.8125 C 1.304688 -7.8125 1.128906 -7.882812 0.984375 -8.03125 C 0.835938 -8.175781 0.765625 -8.359375 0.765625 -8.578125 C 0.765625 -8.785156 0.835938 -8.960938 0.984375 -9.109375 C 1.128906 -9.253906 1.304688 -9.328125 1.515625 -9.328125 C 1.722656 -9.328125 1.894531 -9.253906 2.03125 -9.109375 C 2.175781 -8.960938 2.25 -8.785156 2.25 -8.578125 C 2.25 -8.359375 2.175781 -8.175781 2.03125 -8.03125 C 1.894531 -7.882812 1.722656 -7.8125 1.515625 -7.8125 Z M 2.0625 -6.71875 L 2.0625 0 L 0.9375 0 L 0.9375 -6.71875 Z M 2.0625 -6.71875 "/></g></g><g style="fill:#a6a6a6;fill-opacity:1;"><g transform="translate(238.222537, 126.948)"><path style="stroke:none" d="M 4.21875 -6.84375 C 5.039062 -6.84375 5.703125 -6.59375 6.203125 -6.09375 C 6.710938 -5.601562 6.96875 -4.894531 6.96875 -3.96875 L 6.96875 0 L 5.859375 0 L 5.859375 -3.796875 C 5.859375 -4.472656 5.691406 -4.988281 5.359375 -5.34375 C 5.023438 -5.695312 4.566406 -5.875 3.984375 -5.875 C 3.398438 -5.875 2.929688 -5.6875 2.578125 -5.3125 C 2.234375 -4.945312 2.0625 -4.414062 2.0625 -3.71875 L 2.0625 0 L 0.9375 0 L 0.9375 -6.71875 L 2.0625 -6.71875 L 2.0625 -5.765625 C 2.28125 -6.109375 2.578125 -6.375 2.953125 -6.5625 C 3.335938 -6.75 3.757812 -6.84375 4.21875 -6.84375 Z M 4.21875 -6.84375 "/></g></g><g style="fill:#a6a6a6;fill-opacity:1;"><g transform="translate(246.066972, 126.948)"><path style="stroke:none" d="M 3.71875 -6.828125 C 4.300781 -6.828125 4.8125 -6.703125 5.25 -6.453125 C 5.6875 -6.203125 6.007812 -5.882812 6.21875 -5.5 L 6.21875 -6.71875 L 7.34375 -6.71875 L 7.34375 0.140625 C 7.34375 0.753906 7.210938 1.300781 6.953125 1.78125 C 6.691406 2.257812 6.316406 2.632812 5.828125 2.90625 C 5.347656 3.175781 4.785156 3.3125 4.140625 3.3125 C 3.253906 3.3125 2.515625 3.101562 1.921875 2.6875 C 1.335938 2.269531 0.992188 1.703125 0.890625 0.984375 L 1.984375 0.984375 C 2.109375 1.390625 2.363281 1.71875 2.75 1.96875 C 3.132812 2.21875 3.597656 2.34375 4.140625 2.34375 C 4.742188 2.34375 5.238281 2.148438 5.625 1.765625 C 6.019531 1.378906 6.21875 0.835938 6.21875 0.140625 L 6.21875 -1.265625 C 6 -0.867188 5.671875 -0.539062 5.234375 -0.28125 C 4.804688 -0.0195312 4.300781 0.109375 3.71875 0.109375 C 3.125 0.109375 2.582031 -0.0351562 2.09375 -0.328125 C 1.601562 -0.617188 1.21875 -1.03125 0.9375 -1.5625 C 0.664062 -2.101562 0.53125 -2.710938 0.53125 -3.390625 C 0.53125 -4.078125 0.664062 -4.675781 0.9375 -5.1875 C 1.21875 -5.707031 1.601562 -6.109375 2.09375 -6.390625 C 2.582031 -6.679688 3.125 -6.828125 3.71875 -6.828125 Z M 6.21875 -3.375 C 6.21875 -3.882812 6.113281 -4.328125 5.90625 -4.703125 C 5.707031 -5.078125 5.429688 -5.363281 5.078125 -5.5625 C 4.734375 -5.757812 4.351562 -5.859375 3.9375 -5.859375 C 3.519531 -5.859375 3.140625 -5.757812 2.796875 -5.5625 C 2.453125 -5.375 2.175781 -5.085938 1.96875 -4.703125 C 1.769531 -4.328125 1.671875 -3.890625 1.671875 -3.390625 C 1.671875 -2.867188 1.769531 -2.414062 1.96875 -2.03125 C 2.175781 -1.65625 2.453125 -1.367188 2.796875 -1.171875 C 3.140625 -0.972656 3.519531 -0.875 3.9375 -0.875 C 4.351562 -0.875 4.734375 -0.972656 5.078125 -1.171875 C 5.429688 -1.367188 5.707031 -1.65625 5.90625 -2.03125 C 6.113281 -2.414062 6.21875 -2.863281 6.21875 -3.375 Z M 6.21875 -3.375 "/></g></g><g style="fill:#a6a6a6;fill-opacity:1;"><g transform="translate(254.35266, 126.948)"><path style="stroke:none" d=""/></g></g><g style="fill:#a6a6a6;fill-opacity:1;"><g transform="translate(257.625258, 126.948)"><path style="stroke:none" d="M 3.65625 0.078125 C 3.09375 0.078125 2.585938 -0.0195312 2.140625 -0.21875 C 1.691406 -0.414062 1.34375 -0.691406 1.09375 -1.046875 C 0.84375 -1.398438 0.710938 -1.8125 0.703125 -2.28125 L 1.890625 -2.28125 C 1.929688 -1.882812 2.097656 -1.546875 2.390625 -1.265625 C 2.679688 -0.992188 3.101562 -0.859375 3.65625 -0.859375 C 4.1875 -0.859375 4.601562 -0.988281 4.90625 -1.25 C 5.21875 -1.519531 5.375 -1.863281 5.375 -2.28125 C 5.375 -2.601562 5.28125 -2.867188 5.09375 -3.078125 C 4.914062 -3.285156 4.691406 -3.441406 4.421875 -3.546875 C 4.148438 -3.648438 3.789062 -3.765625 3.34375 -3.890625 C 2.769531 -4.035156 2.3125 -4.179688 1.96875 -4.328125 C 1.632812 -4.472656 1.347656 -4.703125 1.109375 -5.015625 C 0.867188 -5.335938 0.75 -5.765625 0.75 -6.296875 C 0.75 -6.753906 0.863281 -7.164062 1.09375 -7.53125 C 1.332031 -7.894531 1.664062 -8.171875 2.09375 -8.359375 C 2.53125 -8.554688 3.023438 -8.65625 3.578125 -8.65625 C 4.378906 -8.65625 5.035156 -8.453125 5.546875 -8.046875 C 6.054688 -7.648438 6.347656 -7.125 6.421875 -6.46875 L 5.1875 -6.46875 C 5.144531 -6.789062 4.972656 -7.078125 4.671875 -7.328125 C 4.367188 -7.578125 3.96875 -7.703125 3.46875 -7.703125 C 3 -7.703125 2.617188 -7.582031 2.328125 -7.34375 C 2.035156 -7.101562 1.890625 -6.765625 1.890625 -6.328125 C 1.890625 -6.015625 1.976562 -5.757812 2.15625 -5.5625 C 2.332031 -5.375 2.546875 -5.226562 2.796875 -5.125 C 3.054688 -5.019531 3.421875 -4.898438 3.890625 -4.765625 C 4.453125 -4.609375 4.90625 -4.453125 5.25 -4.296875 C 5.59375 -4.148438 5.882812 -3.921875 6.125 -3.609375 C 6.375 -3.296875 6.5 -2.867188 6.5 -2.328125 C 6.5 -1.910156 6.390625 -1.515625 6.171875 -1.140625 C 5.953125 -0.773438 5.625 -0.476562 5.1875 -0.25 C 4.75 -0.03125 4.238281 0.078125 3.65625 0.078125 Z M 3.65625 0.078125 "/></g></g><g style="fill:#a6a6a6;fill-opacity:1;"><g transform="translate(264.820074, 126.948)"><path style="stroke:none" d="M 2.3125 -5.796875 L 2.3125 -1.84375 C 2.3125 -1.507812 2.378906 -1.273438 2.515625 -1.140625 C 2.648438 -1.003906 2.890625 -0.9375 3.234375 -0.9375 L 4.0625 -0.9375 L 4.0625 0 L 3.046875 0 C 2.429688 0 1.96875 -0.140625 1.65625 -0.421875 C 1.34375 -0.710938 1.1875 -1.1875 1.1875 -1.84375 L 1.1875 -5.796875 L 0.3125 -5.796875 L 0.3125 -6.71875 L 1.1875 -6.71875 L 1.1875 -8.421875 L 2.3125 -8.421875 L 2.3125 -6.71875 L 4.0625 -6.71875 L 4.0625 -5.796875 Z M 2.3125 -5.796875 "/></g></g><g style="fill:#a6a6a6;fill-opacity:1;"><g transform="translate(269.281597, 126.948)"><path style="stroke:none" d="M 0.53125 -3.390625 C 0.53125 -4.078125 0.664062 -4.675781 0.9375 -5.1875 C 1.21875 -5.707031 1.601562 -6.109375 2.09375 -6.390625 C 2.582031 -6.679688 3.125 -6.828125 3.71875 -6.828125 C 4.300781 -6.828125 4.8125 -6.703125 5.25 -6.453125 C 5.6875 -6.203125 6.007812 -5.882812 6.21875 -5.5 L 6.21875 -6.71875 L 7.34375 -6.71875 L 7.34375 0 L 6.21875 0 L 6.21875 -1.25 C 6 -0.851562 5.671875 -0.523438 5.234375 -0.265625 C 4.796875 -0.015625 4.285156 0.109375 3.703125 0.109375 C 3.109375 0.109375 2.566406 -0.0351562 2.078125 -0.328125 C 1.597656 -0.617188 1.21875 -1.03125 0.9375 -1.5625 C 0.664062 -2.101562 0.53125 -2.710938 0.53125 -3.390625 Z M 6.21875 -3.375 C 6.21875 -3.882812 6.113281 -4.328125 5.90625 -4.703125 C 5.707031 -5.078125 5.429688 -5.363281 5.078125 -5.5625 C 4.734375 -5.757812 4.351562 -5.859375 3.9375 -5.859375 C 3.519531 -5.859375 3.140625 -5.757812 2.796875 -5.5625 C 2.453125 -5.375 2.175781 -5.085938 1.96875 -4.703125 C 1.769531 -4.328125 1.671875 -3.890625 1.671875 -3.390625 C 1.671875 -2.867188 1.769531 -2.414062 1.96875 -2.03125 C 2.175781 -1.65625 2.453125 -1.367188 2.796875 -1.171875 C 3.140625 -0.972656 3.519531 -0.875 3.9375 -0.875 C 4.351562 -0.875 4.734375 -0.972656 5.078125 -1.171875 C 5.429688 -1.367188 5.707031 -1.65625 5.90625 -2.03125 C 6.113281 -2.414062 6.21875 -2.863281 6.21875 -3.375 Z M 6.21875 -3.375 "/></g></g><g style="fill:#a6a6a6;fill-opacity:1;"><g transform="translate(277.567285, 126.948)"><path style="stroke:none" d="M 2.0625 -5.625 C 2.257812 -6.007812 2.539062 -6.304688 2.90625 -6.515625 C 3.269531 -6.734375 3.710938 -6.84375 4.234375 -6.84375 L 4.234375 -5.6875 L 3.9375 -5.6875 C 2.6875 -5.6875 2.0625 -5.007812 2.0625 -3.65625 L 2.0625 0 L 0.9375 0 L 0.9375 -6.71875 L 2.0625 -6.71875 Z M 2.0625 -5.625 "/></g></g><g style="fill:#a6a6a6;fill-opacity:1;"><g transform="translate(282.139122, 126.948)"><path style="stroke:none" d="M 2.3125 -5.796875 L 2.3125 -1.84375 C 2.3125 -1.507812 2.378906 -1.273438 2.515625 -1.140625 C 2.648438 -1.003906 2.890625 -0.9375 3.234375 -0.9375 L 4.0625 -0.9375 L 4.0625 0 L 3.046875 0 C 2.429688 0 1.96875 -0.140625 1.65625 -0.421875 C 1.34375 -0.710938 1.1875 -1.1875 1.1875 -1.84375 L 1.1875 -5.796875 L 0.3125 -5.796875 L 0.3125 -6.71875 L 1.1875 -6.71875 L 1.1875 -8.421875 L 2.3125 -8.421875 L 2.3125 -6.71875 L 4.0625 -6.71875 L 4.0625 -5.796875 Z M 2.3125 -5.796875 "/></g></g><g style="fill:#a6a6a6;fill-opacity:1;"><g transform="translate(286.600646, 126.948)"><path style="stroke:none" d="M 3.328125 0.109375 C 2.804688 0.109375 2.34375 0.0195312 1.9375 -0.15625 C 1.53125 -0.332031 1.207031 -0.578125 0.96875 -0.890625 C 0.726562 -1.203125 0.597656 -1.5625 0.578125 -1.96875 L 1.734375 -1.96875 C 1.765625 -1.632812 1.921875 -1.359375 2.203125 -1.140625 C 2.484375 -0.929688 2.851562 -0.828125 3.3125 -0.828125 C 3.738281 -0.828125 4.070312 -0.921875 4.3125 -1.109375 C 4.5625 -1.296875 4.6875 -1.535156 4.6875 -1.828125 C 4.6875 -2.117188 4.554688 -2.335938 4.296875 -2.484375 C 4.035156 -2.628906 3.628906 -2.769531 3.078125 -2.90625 C 2.578125 -3.039062 2.171875 -3.175781 1.859375 -3.3125 C 1.546875 -3.445312 1.273438 -3.644531 1.046875 -3.90625 C 0.828125 -4.175781 0.71875 -4.523438 0.71875 -4.953125 C 0.71875 -5.296875 0.816406 -5.609375 1.015625 -5.890625 C 1.222656 -6.179688 1.515625 -6.410156 1.890625 -6.578125 C 2.265625 -6.742188 2.691406 -6.828125 3.171875 -6.828125 C 3.921875 -6.828125 4.523438 -6.640625 4.984375 -6.265625 C 5.441406 -5.890625 5.6875 -5.375 5.71875 -4.71875 L 4.59375 -4.71875 C 4.570312 -5.070312 4.429688 -5.351562 4.171875 -5.5625 C 3.921875 -5.78125 3.578125 -5.890625 3.140625 -5.890625 C 2.734375 -5.890625 2.410156 -5.800781 2.171875 -5.625 C 1.941406 -5.457031 1.828125 -5.234375 1.828125 -4.953125 C 1.828125 -4.734375 1.894531 -4.550781 2.03125 -4.40625 C 2.175781 -4.257812 2.359375 -4.144531 2.578125 -4.0625 C 2.796875 -3.976562 3.097656 -3.882812 3.484375 -3.78125 C 3.960938 -3.644531 4.351562 -3.515625 4.65625 -3.390625 C 4.957031 -3.265625 5.21875 -3.070312 5.4375 -2.8125 C 5.65625 -2.5625 5.769531 -2.234375 5.78125 -1.828125 C 5.78125 -1.460938 5.675781 -1.128906 5.46875 -0.828125 C 5.257812 -0.535156 4.96875 -0.304688 4.59375 -0.140625 C 4.226562 0.0234375 3.804688 0.109375 3.328125 0.109375 Z M 3.328125 0.109375 "/></g></g><g style="fill:#a6a6a6;fill-opacity:1;"><g transform="translate(296.271365, 126.948)"><path style="stroke:none" d="M 7.53125 -8.546875 L 7.53125 0 L 6.421875 0 L 6.421875 -3.875 L 2.0625 -3.875 L 2.0625 0 L 0.9375 0 L 0.9375 -8.546875 L 2.0625 -8.546875 L 2.0625 -4.796875 L 6.421875 -4.796875 L 6.421875 -8.546875 Z M 7.53125 -8.546875 "/></g></g><g style="fill:#a6a6a6;fill-opacity:1;"><g transform="translate(304.753159, 126.948)"><path style="stroke:none" d="M 7.078125 -3.625 C 7.078125 -3.40625 7.066406 -3.175781 7.046875 -2.9375 L 1.671875 -2.9375 C 1.710938 -2.28125 1.9375 -1.765625 2.34375 -1.390625 C 2.757812 -1.015625 3.257812 -0.828125 3.84375 -0.828125 C 4.332031 -0.828125 4.738281 -0.941406 5.0625 -1.171875 C 5.382812 -1.398438 5.609375 -1.703125 5.734375 -2.078125 L 6.9375 -2.078125 C 6.757812 -1.429688 6.398438 -0.90625 5.859375 -0.5 C 5.316406 -0.09375 4.644531 0.109375 3.84375 0.109375 C 3.207031 0.109375 2.640625 -0.03125 2.140625 -0.3125 C 1.640625 -0.601562 1.242188 -1.007812 0.953125 -1.53125 C 0.671875 -2.0625 0.53125 -2.675781 0.53125 -3.375 C 0.53125 -4.070312 0.664062 -4.679688 0.9375 -5.203125 C 1.21875 -5.722656 1.609375 -6.125 2.109375 -6.40625 C 2.617188 -6.6875 3.195312 -6.828125 3.84375 -6.828125 C 4.488281 -6.828125 5.054688 -6.6875 5.546875 -6.40625 C 6.035156 -6.132812 6.410156 -5.753906 6.671875 -5.265625 C 6.941406 -4.773438 7.078125 -4.226562 7.078125 -3.625 Z M 5.921875 -3.84375 C 5.921875 -4.269531 5.828125 -4.632812 5.640625 -4.9375 C 5.453125 -5.25 5.195312 -5.484375 4.875 -5.640625 C 4.550781 -5.804688 4.191406 -5.890625 3.796875 -5.890625 C 3.234375 -5.890625 2.753906 -5.707031 2.359375 -5.34375 C 1.960938 -4.988281 1.738281 -4.488281 1.6875 -3.84375 Z M 5.921875 -3.84375 "/></g></g><g style="fill:#a6a6a6;fill-opacity:1;"><g transform="translate(312.352457, 126.948)"><path style="stroke:none" d="M 2.0625 -5.625 C 2.257812 -6.007812 2.539062 -6.304688 2.90625 -6.515625 C 3.269531 -6.734375 3.710938 -6.84375 4.234375 -6.84375 L 4.234375 -5.6875 L 3.9375 -5.6875 C 2.6875 -5.6875 2.0625 -5.007812 2.0625 -3.65625 L 2.0625 0 L 0.9375 0 L 0.9375 -6.71875 L 2.0625 -6.71875 Z M 2.0625 -5.625 "/></g></g><g style="fill:#a6a6a6;fill-opacity:1;"><g transform="translate(316.924293, 126.948)"><path style="stroke:none" d="M 7.078125 -3.625 C 7.078125 -3.40625 7.066406 -3.175781 7.046875 -2.9375 L 1.671875 -2.9375 C 1.710938 -2.28125 1.9375 -1.765625 2.34375 -1.390625 C 2.757812 -1.015625 3.257812 -0.828125 3.84375 -0.828125 C 4.332031 -0.828125 4.738281 -0.941406 5.0625 -1.171875 C 5.382812 -1.398438 5.609375 -1.703125 5.734375 -2.078125 L 6.9375 -2.078125 C 6.757812 -1.429688 6.398438 -0.90625 5.859375 -0.5 C 5.316406 -0.09375 4.644531 0.109375 3.84375 0.109375 C 3.207031 0.109375 2.640625 -0.03125 2.140625 -0.3125 C 1.640625 -0.601562 1.242188 -1.007812 0.953125 -1.53125 C 0.671875 -2.0625 0.53125 -2.675781 0.53125 -3.375 C 0.53125 -4.070312 0.664062 -4.679688 0.9375 -5.203125 C 1.21875 -5.722656 1.609375 -6.125 2.109375 -6.40625 C 2.617188 -6.6875 3.195312 -6.828125 3.84375 -6.828125 C 4.488281 -6.828125 5.054688 -6.6875 5.546875 -6.40625 C 6.035156 -6.132812 6.410156 -5.753906 6.671875 -5.265625 C 6.941406 -4.773438 7.078125 -4.226562 7.078125 -3.625 Z M 5.921875 -3.84375 C 5.921875 -4.269531 5.828125 -4.632812 5.640625 -4.9375 C 5.453125 -5.25 5.195312 -5.484375 4.875 -5.640625 C 4.550781 -5.804688 4.191406 -5.890625 3.796875 -5.890625 C 3.234375 -5.890625 2.753906 -5.707031 2.359375 -5.34375 C 1.960938 -4.988281 1.738281 -4.488281 1.6875 -3.84375 Z M 5.921875 -3.84375 "/></g></g></g></svg>